<?xml version="1.0" encoding="UTF-8"?>
<svg id="Layer_1" data-name="Layer 1" xmlns="http://www.w3.org/2000/svg" version="1.1" viewBox="0 0 20 20">
  <defs>
    <style>
      .cls-1 {
        fill-opacity: .9;
      }

      .cls-1, .cls-2 {
        fill: #000;
        stroke-width: 0px;
      }

      .cls-2 {
        fill-opacity: 0;
      }

      .cls-3 {
        opacity: .4;
      }
    </style>
  </defs>
  <g class="cls-3">
    <rect class="cls-2" x=".9" y="2.5" width="18.5" height="14.8"/>
    <path class="cls-1" d="M19,9.9c0-.2,0-.5-.3-.7l-6.5-6.5c-.2-.2-.4-.3-.7-.3-.5,0-.8.4-.8.8s0,.5.2.6l2.2,2.2,3.9,3.5.2-.5-3.1-.2H1.8c-.5,0-.9.4-.9.9s.4.9.9.9h12.4l3.1-.2-.2-.5-3.9,3.5-2.2,2.2c-.2.1-.2.4-.2.6,0,.5.4.8.8.8s.4,0,.6-.3l6.5-6.5c.2-.2.3-.4.3-.7Z"/>
  </g>
</svg>