<svg width="30" height="30" viewBox="0 0 30 30" fill="none" xmlns="http://www.w3.org/2000/svg">
<path d="M12.7004 20.6205C12.5415 20.6208 12.3841 20.5898 12.2372 20.5291C12.0904 20.4685 11.9569 20.3794 11.8446 20.267L6.70952 15.1308C6.59382 15.0192 6.50151 14.8857 6.43797 14.738C6.37442 14.5904 6.34092 14.4316 6.33941 14.2708C6.3379 14.1101 6.36842 13.9507 6.42918 13.8019C6.48994 13.6531 6.57973 13.5179 6.69331 13.4041C6.80688 13.2904 6.94198 13.2004 7.0907 13.1394C7.23943 13.0785 7.3988 13.0477 7.55954 13.049C7.72027 13.0503 7.87914 13.0836 8.02687 13.1469C8.1746 13.2102 8.30824 13.3023 8.41999 13.4179L12.6992 17.6971L20.4042 9.99452C20.6312 9.76737 20.9391 9.6397 21.2602 9.63959C21.5813 9.63947 21.8893 9.76693 22.1165 9.99391C22.3436 10.2209 22.4713 10.5288 22.4714 10.8499C22.4715 11.171 22.3441 11.4791 22.1171 11.7062L13.5563 20.267C13.4439 20.3794 13.3104 20.4685 13.1636 20.5291C13.0167 20.5898 12.8593 20.6208 12.7004 20.6205Z" fill="#2FAB73"/>
</svg>
