<svg width="32" height="18" viewBox="0 0 32 18" fill="none" xmlns="http://www.w3.org/2000/svg">
<rect x="0.144043" width="31.4851" height="17.7104" rx="2.92744" fill="#FFA5A5"/>
<path d="M18.8036 13.1927V4.68725H20.0869V8.74896H20.1907L23.7582 4.68725H25.3738L21.9433 8.51638L25.3862 13.1927H23.8413L21.0919 9.39268L20.0869 10.5472V13.1927H18.8036Z" fill="#FF0000"/>
<path d="M14.1121 9.64383H13.9149C13.4794 9.64383 13.1263 9.29074 13.1263 8.85518V8.85518C13.1263 8.41963 13.4794 8.06654 13.9149 8.06654H14.1121C14.463 8.06654 14.8061 7.96247 15.0979 7.76749C15.3897 7.57251 15.6172 7.29537 15.7515 6.97114C15.8858 6.6469 15.9209 6.29011 15.8524 5.9459C15.784 5.60169 15.615 5.28551 15.3668 5.03735C15.1187 4.78919 14.8025 4.62019 14.4583 4.55172C14.1141 4.48325 13.7573 4.51839 13.433 4.6527C13.1088 4.787 12.8317 5.01444 12.6367 5.30625C12.4417 5.59805 12.3376 5.94113 12.3376 6.29208V6.48924C12.3376 6.9248 11.9845 7.27789 11.549 7.27789V7.27789C11.1134 7.27789 10.7603 6.9248 10.7603 6.48924V6.29208C10.7603 5.94113 10.6563 5.59805 10.4613 5.30625C10.2663 5.01444 9.98918 4.787 9.66494 4.6527C9.3407 4.51839 8.98391 4.48325 8.6397 4.55172C8.29549 4.62019 7.97931 4.78919 7.73115 5.03735C7.48299 5.28551 7.31399 5.60169 7.24552 5.9459C7.17705 6.29011 7.21219 6.6469 7.3465 6.97114C7.4808 7.29537 7.70824 7.57251 8.00005 7.76749C8.29186 7.96247 8.63493 8.06654 8.98588 8.06654H9.18304C9.6186 8.06654 9.97169 8.41963 9.97169 8.85518V8.85518C9.97169 9.29074 9.6186 9.64383 9.18304 9.64383H8.98588C8.63493 9.64383 8.29186 9.7479 8.00005 9.94288C7.70824 10.1379 7.4808 10.415 7.3465 10.7392C7.21219 11.0635 7.17705 11.4203 7.24552 11.7645C7.31399 12.1087 7.48299 12.4249 7.73115 12.673C7.97931 12.9212 8.29549 13.0902 8.6397 13.1586C8.98391 13.2271 9.3407 13.192 9.66494 13.0577C9.98918 12.9234 10.2663 12.6959 10.4613 12.4041C10.6563 12.1123 10.7603 11.7692 10.7603 11.4183V11.2211C10.7603 10.7856 11.1134 10.4325 11.549 10.4325V10.4325C11.9845 10.4325 12.3376 10.7856 12.3376 11.2211V11.4183C12.3376 11.7692 12.4417 12.1123 12.6367 12.4041C12.8317 12.6959 13.1088 12.9234 13.433 13.0577C13.7573 13.192 14.1141 13.2271 14.4583 13.1586C14.8025 13.0902 15.1187 12.9212 15.3668 12.673C15.615 12.4249 15.784 12.1087 15.8524 11.7645C15.9209 11.4203 15.8858 11.0635 15.7515 10.7392C15.6172 10.415 15.3897 10.1379 15.0979 9.94288C14.8061 9.7479 14.463 9.64383 14.1121 9.64383ZM13.1263 6.29208C13.1263 6.09711 13.1841 5.90651 13.2924 5.74439C13.4007 5.58228 13.5547 5.45593 13.7348 5.38131C13.915 5.3067 14.1132 5.28718 14.3044 5.32521C14.4956 5.36325 14.6713 5.45714 14.8092 5.59501C14.947 5.73288 15.0409 5.90853 15.079 6.09976C15.117 6.29099 15.0975 6.4892 15.0229 6.66933C14.9482 6.84947 14.8219 7.00343 14.6598 7.11175C14.4977 7.22007 14.3071 7.27789 14.1121 7.27789V7.27789C13.5676 7.27789 13.1263 6.83653 13.1263 6.29208V6.29208ZM8.00007 6.29208C8.00007 6.03063 8.10394 5.77988 8.28881 5.59501C8.47369 5.41013 8.72443 5.30627 8.98588 5.30627C9.24733 5.30627 9.49808 5.41013 9.68295 5.59501C9.86783 5.77988 9.97169 6.03063 9.97169 6.29208V6.29208C9.97169 6.83653 9.53033 7.27789 8.98588 7.27789V7.27789C8.72443 7.27789 8.47369 7.17403 8.28881 6.98915C8.10394 6.80428 8.00007 6.55353 8.00007 6.29208ZM9.97169 11.4183C9.97169 11.6133 9.91387 11.8039 9.80555 11.966C9.69723 12.1281 9.54327 12.2544 9.36313 12.3291C9.183 12.4037 8.98479 12.4232 8.79356 12.3852C8.60233 12.3471 8.42668 12.2532 8.28881 12.1154C8.15094 11.9775 8.05705 11.8018 8.01902 11.6106C7.98098 11.4194 8.0005 11.2212 8.07511 11.041C8.14973 10.8609 8.27608 10.7069 8.4382 10.5986C8.60031 10.4903 8.79091 10.4325 8.98588 10.4325V10.4325C9.53033 10.4325 9.97169 10.8738 9.97169 11.4183V11.4183ZM10.7603 8.85518C10.7603 8.41963 11.1134 8.06654 11.549 8.06654V8.06654C11.9845 8.06654 12.3376 8.41963 12.3376 8.85518V8.85518C12.3376 9.29074 11.9845 9.64383 11.549 9.64383V9.64383C11.1134 9.64383 10.7603 9.29074 10.7603 8.85518V8.85518ZM14.1121 12.4041C13.8506 12.4041 13.5999 12.3002 13.415 12.1154C13.2301 11.9305 13.1263 11.6797 13.1263 11.4183V11.4183C13.1263 10.8738 13.5676 10.4325 14.1121 10.4325V10.4325C14.3735 10.4325 14.6243 10.5363 14.8092 10.7212C14.994 10.9061 15.0979 11.1568 15.0979 11.4183C15.0979 11.6797 14.994 11.9305 14.8092 12.1154C14.6243 12.3002 14.3735 12.4041 14.1121 12.4041Z" fill="#FF0000"/>
</svg>
