<svg width="25" height="24" viewBox="0 0 25 24" fill="none" xmlns="http://www.w3.org/2000/svg">
<g clip-path="url(#clip0_922_132)">
<path d="M18.1045 6.44116C16.9599 5.92261 15.7516 5.55473 14.5104 5.34692C14.3406 5.64738 14.1869 5.95652 14.05 6.27303C12.7279 6.07588 11.3834 6.07588 10.0613 6.27303C9.92433 5.95655 9.77065 5.64742 9.60087 5.34692C8.35888 5.55649 7.14976 5.92524 6.00403 6.44388C3.72945 9.77406 3.11285 13.0215 3.42115 16.2229C4.7532 17.1968 6.24414 17.9375 7.82917 18.4127C8.18607 17.9377 8.50188 17.4338 8.77326 16.9063C8.25782 16.7158 7.76034 16.4808 7.28656 16.2039C7.41125 16.1144 7.5332 16.0222 7.65104 15.9327C9.02962 16.5743 10.5343 16.9069 12.0577 16.9069C13.5811 16.9069 15.0858 16.5743 16.4643 15.9327C16.5836 16.029 16.7055 16.1212 16.8288 16.2039C16.3541 16.4812 15.8557 16.7167 15.3394 16.9076C15.6104 17.4349 15.9263 17.9384 16.2835 18.4127C17.8699 17.9394 19.3619 17.1991 20.6942 16.2243C21.056 12.5117 20.0763 9.29406 18.1045 6.44116ZM9.16377 14.2541C8.30464 14.2541 7.59486 13.4825 7.59486 12.5334C7.59486 11.5842 8.27997 10.8059 9.16103 10.8059C10.0421 10.8059 10.7464 11.5842 10.7313 12.5334C10.7162 13.4825 10.0393 14.2541 9.16377 14.2541ZM14.9516 14.2541C14.0911 14.2541 13.3841 13.4825 13.3841 12.5334C13.3841 11.5842 14.0692 10.8059 14.9516 10.8059C15.834 10.8059 16.5329 11.5842 16.5178 12.5334C16.5027 13.4825 15.8272 14.2541 14.9516 14.2541Z" fill="#B4B4B4" fill-opacity="0.45"/>
</g>
<defs>
<clipPath id="clip0_922_132">
<rect width="24.1113" height="23.7598" fill="white" transform="translate(0.00195312)"/>
</clipPath>
</defs>
</svg>
