<svg width="25" height="24" viewBox="0 0 25 24" fill="none" xmlns="http://www.w3.org/2000/svg">
<g clip-path="url(#clip0_921_85)">
<path d="M16.7609 5.6303V6.9286H15.3948V5.70667C15.3948 4.82416 14.9196 4.36594 14.0795 4.36594H5.60235C4.75379 4.36594 4.28709 4.82416 4.28709 5.70667V14.1414C4.28709 15.0238 4.75379 15.4821 5.60235 15.4821H7.03642V16.8482H5.58538C3.8034 16.8482 2.9209 15.9658 2.9209 14.2177V5.6303C2.9209 3.88226 3.8034 2.99976 5.58538 2.99976H14.1049C15.8699 2.99976 16.7609 3.88226 16.7609 5.6303Z" fill="url(#paint0_linear_921_85)"/>
<path d="M9.70061 20.7772H18.2201C19.9852 20.7772 20.8762 19.8947 20.8762 18.1467V9.55925C20.8762 7.81121 19.9852 6.92871 18.2201 6.92871H9.70061C7.91863 6.92871 7.03613 7.80273 7.03613 9.55925V18.1467C7.03613 19.8947 7.91863 20.7772 9.70061 20.7772ZM9.71759 19.411C8.87751 19.411 8.40231 18.9528 8.40231 18.0703V9.63562C8.40231 8.75311 8.87751 8.29489 9.71759 8.29489H18.1947C19.0348 8.29489 19.51 8.75311 19.51 9.63562V18.0703C19.51 18.9528 19.0348 19.411 18.1947 19.411H9.71759Z" fill="url(#paint1_linear_921_85)"/>
<path d="M10.6429 11.7398C11.2963 11.7483 11.8394 11.2052 11.8394 10.5349C11.8394 9.86449 11.2963 9.33838 10.6429 9.33838C9.98107 9.33838 9.43799 9.86449 9.43799 10.5349C9.43799 11.2052 9.98107 11.7314 10.6429 11.7398ZM17.2872 11.7398C17.9406 11.7483 18.4837 11.2052 18.4837 10.5349C18.4837 9.86449 17.9406 9.33838 17.2872 9.33838C16.6253 9.33838 16.0737 9.86449 16.0737 10.5349C16.0737 11.2052 16.6253 11.7314 17.2872 11.7398ZM13.9608 15.0661C14.6142 15.0661 15.1573 14.523 15.1573 13.8528C15.1573 13.1993 14.6142 12.6648 13.9608 12.6648C13.299 12.6648 12.7643 13.1993 12.7643 13.8528C12.7643 14.523 13.299 15.0661 13.9608 15.0661ZM10.6429 18.3926C11.2963 18.3926 11.8394 17.8495 11.8394 17.1876C11.8394 16.5257 11.2963 15.9911 10.6429 15.9911C9.98107 15.9911 9.44648 16.5257 9.44648 17.1876C9.44648 17.8495 9.98107 18.3926 10.6429 18.3926ZM17.2872 18.3926C17.9406 18.3926 18.4837 17.8495 18.4837 17.1876C18.4837 16.5257 17.9406 15.9911 17.2872 15.9911C16.6253 15.9911 16.0822 16.5257 16.0822 17.1876C16.0822 17.8495 16.6253 18.3926 17.2872 18.3926Z" fill="url(#paint2_linear_921_85)"/>
</g>
<defs>
<linearGradient id="paint0_linear_921_85" x1="3.50284" y1="9.92401" x2="16.1539" y2="9.92401" gradientUnits="userSpaceOnUse">
<stop stop-color="#FF494D"/>
<stop offset="1" stop-color="#FF6F6E"/>
</linearGradient>
<linearGradient id="paint1_linear_921_85" x1="7.61808" y1="13.853" x2="20.2691" y2="13.853" gradientUnits="userSpaceOnUse">
<stop stop-color="#FF494D"/>
<stop offset="1" stop-color="#FF6F6E"/>
</linearGradient>
<linearGradient id="paint2_linear_921_85" x1="9.81834" y1="13.8655" x2="18.0869" y2="13.8655" gradientUnits="userSpaceOnUse">
<stop stop-color="#FF494D"/>
<stop offset="1" stop-color="#FF6F6E"/>
</linearGradient>
<clipPath id="clip0_921_85">
<rect width="24.1113" height="23.7598" fill="white"/>
</clipPath>
</defs>
</svg>
