<svg width="25" height="24" viewBox="0 0 25 24" fill="none" xmlns="http://www.w3.org/2000/svg">
<g clip-path="url(#clip0_922_114)">
<path d="M12.0561 19.6552C16.3301 19.6552 19.8152 16.1621 19.8152 11.8799C19.8152 7.59764 16.3301 4.10445 12.0561 4.10445C7.78213 4.10445 4.29716 7.59764 4.29716 11.8799C4.29716 16.1621 7.78213 19.6552 12.0561 19.6552ZM12.0561 18.3155C8.48898 18.3155 5.678 15.4799 5.678 11.8799C5.678 8.27983 8.48898 5.44419 12.0561 5.44419C15.6233 5.44419 18.4343 8.27983 18.4343 11.8799C18.4343 15.4799 15.6233 18.3155 12.0561 18.3155ZM12.0561 21.8745C12.3849 21.8745 12.6397 21.6115 12.6397 21.2827V15.7182C12.6397 15.3895 12.3849 15.1347 12.0561 15.1347C11.7274 15.1347 11.4644 15.3895 11.4644 15.7182V21.2827C11.4644 21.6115 11.7274 21.8745 12.0561 21.8745ZM2.65331 12.4717H8.21774C8.54652 12.4717 8.80953 12.2086 8.80953 11.8799C8.80953 11.5511 8.54652 11.2963 8.21774 11.2963H2.65331C2.32454 11.2963 2.06152 11.5511 2.06152 11.8799C2.06152 12.2086 2.32454 12.4717 2.65331 12.4717ZM12.0561 8.63326C12.3849 8.63326 12.6397 8.37024 12.6397 8.04148V2.47704C12.6397 2.14827 12.3849 1.88525 12.0561 1.88525C11.7274 1.88525 11.4644 2.14827 11.4644 2.47704V8.04148C11.4644 8.37024 11.7274 8.63326 12.0561 8.63326ZM15.8945 12.4717H21.459C21.7877 12.4717 22.0508 12.2086 22.0508 11.8799C22.0508 11.5511 21.7877 11.2963 21.459 11.2963H15.8945C15.5657 11.2963 15.3027 11.5511 15.3027 11.8799C15.3027 12.2086 15.5657 12.4717 15.8945 12.4717Z" fill="#B4B4B4" fill-opacity="0.45"/>
</g>
<defs>
<clipPath id="clip0_922_114">
<rect width="24.1113" height="23.7598" fill="white" transform="translate(0.000488281)"/>
</clipPath>
</defs>
</svg>
