<svg width="25" height="24" viewBox="0 0 25 24" fill="none" xmlns="http://www.w3.org/2000/svg">
<g clip-path="url(#clip0_922_106)">
<path d="M6.9252 16.3202C9.01162 16.3202 10.7955 15.6377 11.9124 14.4122C13.0293 15.6377 14.8132 16.3202 16.8996 16.3202C20.2736 16.3202 22.8951 14.2726 22.8951 11.6355C22.8951 10.5341 22.4375 9.88259 21.6309 9.88259C21.2973 9.88259 21.0104 10.0222 20.7467 10.3092C20.4209 10.666 19.9245 10.9142 19.3583 10.9142C17.4116 10.9142 16.9616 8.23828 13.7739 8.23828C13.0603 8.23828 12.4244 8.43994 11.9124 8.80448C11.4005 8.43994 10.7645 8.23828 10.051 8.23828C6.86315 8.23828 6.4133 10.9142 4.46649 10.9142C3.90029 10.9142 3.4039 10.666 3.07815 10.3092C2.81444 10.0222 2.52746 9.88259 2.19394 9.88259C1.3873 9.88259 0.929688 10.5341 0.929688 11.6355C0.929688 14.2726 3.55127 16.3202 6.9252 16.3202ZM6.9252 15.0715C4.25708 15.0715 2.17843 13.5512 2.17843 11.6277C2.17843 11.4106 2.37234 11.395 2.49643 11.4804C2.9618 11.9225 3.70639 12.1629 4.46649 12.1629C5.82383 12.1629 6.72354 11.4028 7.4914 10.7435C8.28253 10.0765 8.94959 9.48702 10.051 9.48702C10.7878 9.48702 11.3618 9.81278 11.6565 10.348C11.7728 10.5729 12.052 10.5806 12.1606 10.348C12.4553 9.81278 13.037 9.48702 13.7739 9.48702C14.8753 9.48702 15.5423 10.0765 16.3334 10.7435C17.1013 11.4028 18.001 12.1629 19.3583 12.1629C20.1185 12.1629 20.8631 11.9147 21.3517 11.4493C21.4835 11.3563 21.6464 11.364 21.6464 11.6277C21.6464 13.5512 19.5677 15.0715 16.8996 15.0715C14.596 15.0715 12.8742 14.1485 12.2227 12.6515C12.0986 12.3646 11.7263 12.3568 11.6022 12.6515C10.9584 14.1485 9.23655 15.0715 6.9252 15.0715Z" fill="url(#paint0_linear_922_106)"/>
</g>
<defs>
<linearGradient id="paint0_linear_922_106" x1="1.85329" y1="12.2792" x2="21.9316" y2="12.2792" gradientUnits="userSpaceOnUse">
<stop stop-color="#FF494D"/>
<stop offset="1" stop-color="#FF6F6E"/>
</linearGradient>
<clipPath id="clip0_922_106">
<rect width="24.1113" height="23.7598" fill="white"/>
</clipPath>
</defs>
</svg>
