<svg width="26" height="25" viewBox="0 0 26 25" fill="none" xmlns="http://www.w3.org/2000/svg">
<g clip-path="url(#clip0_921_85)">
<path d="M17.714 6.15911V7.45741H16.3479V6.23548C16.3479 5.35297 15.8727 4.89475 15.0326 4.89475H6.55548C5.70692 4.89475 5.24021 5.35297 5.24021 6.23548V14.6702C5.24021 15.5527 5.70692 16.0109 6.55548 16.0109H7.98955V17.3771H6.53851C4.75652 17.3771 3.87402 16.4946 3.87402 14.7466V6.15911C3.87402 4.41107 4.75652 3.52856 6.53851 3.52856H15.0581C16.823 3.52856 17.714 4.41107 17.714 6.15911Z" fill="#393B3F"/>
<path d="M10.6537 21.306H19.1733C20.9383 21.306 21.8293 20.4235 21.8293 18.6755V10.0881C21.8293 8.34002 20.9383 7.45752 19.1733 7.45752H10.6537C8.87176 7.45752 7.98926 8.33154 7.98926 10.0881V18.6755C7.98926 20.4235 8.87176 21.306 10.6537 21.306ZM10.6707 19.9398C9.83064 19.9398 9.35544 19.4816 9.35544 18.5991V10.1644C9.35544 9.28192 9.83064 8.8237 10.6707 8.8237H19.1478C19.9879 8.8237 20.4631 9.28192 20.4631 10.1644V18.5991C20.4631 19.4816 19.9879 19.9398 19.1478 19.9398H10.6707Z" fill="#393B3F"/>
<path d="M11.5961 12.2686C12.2495 12.2771 12.7926 11.734 12.7926 11.0637C12.7926 10.3933 12.2495 9.86719 11.5961 9.86719C10.9342 9.86719 10.3911 10.3933 10.3911 11.0637C10.3911 11.734 10.9342 12.2602 11.5961 12.2686ZM18.2403 12.2686C18.8937 12.2771 19.4368 11.734 19.4368 11.0637C19.4368 10.3933 18.8937 9.86719 18.2403 9.86719C17.5784 9.86719 17.0268 10.3933 17.0268 11.0637C17.0268 11.734 17.5784 12.2602 18.2403 12.2686ZM14.914 15.5949C15.5673 15.5949 16.1104 15.0519 16.1104 14.3816C16.1104 13.7281 15.5673 13.1936 14.914 13.1936C14.2521 13.1936 13.7175 13.7281 13.7175 14.3816C13.7175 15.0519 14.2521 15.5949 14.914 15.5949ZM11.5961 18.9214C12.2495 18.9214 12.7926 18.3783 12.7926 17.7164C12.7926 17.0545 12.2495 16.5199 11.5961 16.5199C10.9342 16.5199 10.3996 17.0545 10.3996 17.7164C10.3996 18.3783 10.9342 18.9214 11.5961 18.9214ZM18.2403 18.9214C18.8937 18.9214 19.4368 18.3783 19.4368 17.7164C19.4368 17.0545 18.8937 16.5199 18.2403 16.5199C17.5784 16.5199 17.0354 17.0545 17.0354 17.7164C17.0354 18.3783 17.5784 18.9214 18.2403 18.9214Z" fill="#393B3F"/>
</g>
<defs>
<clipPath id="clip0_921_85">
<rect width="24.1113" height="23.7598" fill="white" transform="translate(0.953125 0.528809)"/>
</clipPath>
</defs>
</svg>
