<svg width="25" height="24" viewBox="0 0 25 24" fill="none" xmlns="http://www.w3.org/2000/svg">
<g clip-path="url(#clip0_922_120)">
<path d="M3.77124 19.8743H5.18506C6.07217 19.8743 6.65434 19.2367 6.65434 18.5575C6.65434 18.1624 6.488 17.7535 6.09296 17.5526C7.40283 17.0258 8.22064 16.1318 8.484 14.8358C9.50279 15.4318 11.0344 15.5219 12.6285 15.3556C12.6077 16.312 12.4621 17.6773 12.4621 18.2941C12.4621 19.3406 13.0027 19.902 14.0215 19.902H15.2066C16.2462 19.902 16.8006 19.2367 16.8006 18.4327C16.8006 17.8783 16.5581 17.2753 15.7264 16.9427C15.7749 16.2704 16.0868 14.7734 16.2947 14.1566C16.6412 13.1517 17.3412 12.2923 17.3412 10.8784C17.3412 10.2616 17.459 9.92896 17.5768 9.65867C18.0412 9.93589 18.4639 10.0676 18.956 10.0676C20.2243 10.0676 21.5342 8.74384 21.5342 7.35773C21.5342 6.59537 20.4946 6.13103 19.9194 5.76371C19.2332 5.28551 18.7689 4.65483 18.0343 4.32909L17.8264 5.3063C18.3461 5.56966 18.7204 6.09638 19.3303 6.49835C19.9817 6.93497 20.4599 6.97655 20.4599 7.47556C20.4599 8.1894 19.6907 8.98641 18.956 8.98641C18.5471 8.98641 18.2214 8.86166 17.6531 8.46662C17.3898 8.28642 17.1194 8.32108 16.96 8.57057C16.4333 9.33987 16.267 9.95668 16.267 10.8784C16.267 11.8972 15.6848 12.5557 15.2552 13.8516C15.0264 14.5725 14.6383 16.3743 14.6383 17.1922C14.6383 17.3932 14.7076 17.5664 14.9571 17.6565C15.6224 17.8436 15.7195 18.1555 15.7195 18.3703C15.7195 18.6545 15.5392 18.7931 15.2066 18.7931H14.0561C13.7096 18.7931 13.5502 18.6129 13.5502 18.2456C13.5502 16.9149 13.7997 15.113 13.7997 14.4685C13.7997 14.1566 13.5156 13.9902 13.1829 14.1011C11.277 14.7387 9.31566 14.316 8.22757 13.4497C7.92262 13.2002 7.56917 13.3873 7.56917 13.72C7.56917 15.5358 6.70285 16.4159 4.75537 16.9149C4.3534 17.0258 4.3534 17.6288 4.75537 17.6981C5.29595 17.7812 5.57318 18.0308 5.57318 18.3703C5.57318 18.6407 5.36526 18.7931 5.06031 18.7931H3.90291C3.59798 18.7931 3.39699 18.5713 3.39699 18.2456V16.9219C3.39699 16.3951 3.6049 16.0833 4.54746 15.3348C5.26823 14.7595 5.46921 13.9764 5.46921 12.3269C5.46921 11.4676 5.57318 10.4903 5.94049 10.0052L4.9425 8.88245C4.62369 8.52207 5.1019 8.14089 5.40684 8.49434L6.36325 9.60323C6.488 9.5062 6.6682 9.45076 6.91076 9.4369L12.7879 8.94483C15.3868 8.07158 15.269 6.94883 16.0868 6.09638L15.4422 5.23699C14.0215 6.52607 14.3195 7.25378 12.5661 7.87752L7.15334 8.33494C6.95928 8.3488 6.77909 8.36959 6.61275 8.39039L6.10682 7.78743C5.04645 6.533 3.01581 8.05772 4.18014 9.44382L4.71379 10.0814C4.50587 10.7121 4.38806 11.4676 4.38806 12.3269C4.38806 13.7962 4.27717 14.1774 3.88905 14.4893C2.78017 15.3625 2.32275 16.014 2.32275 16.9219V18.3635C2.32275 19.2506 2.92571 19.8743 3.77124 19.8743ZM16.6066 7.03893C17.7363 7.03893 18.3115 5.13996 18.3115 4.59938C18.3115 4.12118 18.062 3.86475 17.563 3.86475H15.6571C15.1581 3.86475 14.9017 4.12118 14.9017 4.59938C14.9017 5.13996 15.4838 7.03893 16.6066 7.03893ZM16.6066 6.10331C16.2531 6.10331 15.969 5.34788 15.8927 4.92512C15.8789 4.85581 15.9274 4.80036 15.9967 4.80036H17.2234C17.2927 4.80036 17.3412 4.85581 17.3274 4.92512C17.2512 5.34788 16.96 6.10331 16.6066 6.10331ZM18.4016 7.46862C18.6857 7.46862 18.9144 7.23299 18.9144 6.9419C18.9144 6.65082 18.6857 6.42905 18.4016 6.42905C18.1105 6.42905 17.8818 6.65082 17.8818 6.9419C17.8818 7.23299 18.1105 7.46862 18.4016 7.46862Z" fill="#B4B4B4" fill-opacity="0.45"/>
</g>
<defs>
<clipPath id="clip0_922_120">
<rect width="24.1113" height="23.7598" fill="white" transform="translate(0.000976562)"/>
</clipPath>
</defs>
</svg>
