<svg width="26" height="25" viewBox="0 0 26 25" fill="none" xmlns="http://www.w3.org/2000/svg">
<g clip-path="url(#clip0_921_85)">
<path d="M7.87784 16.849C9.96426 16.849 11.7482 16.1665 12.865 14.941C13.982 16.1665 15.7659 16.849 17.8522 16.849C21.2262 16.849 23.8477 14.8014 23.8477 12.1643C23.8477 11.0629 23.3902 10.4114 22.5836 10.4114C22.25 10.4114 21.963 10.551 21.6993 10.838C21.3735 11.1948 20.8772 11.443 20.3109 11.443C18.3642 11.443 17.9143 8.76709 14.7265 8.76709C14.0129 8.76709 13.377 8.96875 12.865 9.33329C12.3531 8.96875 11.7171 8.76709 11.0036 8.76709C7.81578 8.76709 7.36593 11.443 5.41913 11.443C4.85293 11.443 4.35654 11.1948 4.03078 10.838C3.76707 10.551 3.48009 10.4114 3.14658 10.4114C2.33994 10.4114 1.88232 11.0629 1.88232 12.1643C1.88232 14.8014 4.50391 16.849 7.87784 16.849ZM7.87784 15.6003C5.20971 15.6003 3.13107 14.0801 3.13107 12.1565C3.13107 11.9394 3.32497 11.9238 3.44907 12.0092C3.91444 12.4513 4.65903 12.6917 5.41913 12.6917C6.77646 12.6917 7.67617 11.9316 8.44404 11.2723C9.23516 10.6053 9.90223 10.0158 11.0036 10.0158C11.7404 10.0158 12.3144 10.3416 12.6091 10.8768C12.7254 11.1017 13.0047 11.1095 13.1132 10.8768C13.408 10.3416 13.9897 10.0158 14.7265 10.0158C15.8279 10.0158 16.4949 10.6053 17.286 11.2723C18.0539 11.9316 18.9536 12.6917 20.3109 12.6917C21.0711 12.6917 21.8157 12.4435 22.3043 11.9781C22.4361 11.8851 22.599 11.8928 22.599 12.1565C22.599 14.0801 20.5204 15.6003 17.8522 15.6003C15.5487 15.6003 13.8268 14.6773 13.1753 13.1803C13.0512 12.8934 12.6789 12.8856 12.5548 13.1803C11.9111 14.6773 10.1892 15.6003 7.87784 15.6003Z" fill="#393B3F"/>
</g>
<defs>
<clipPath id="clip0_921_85">
<rect width="24.1113" height="23.7598" fill="white" transform="translate(0.953125 0.528809)"/>
</clipPath>
</defs>
</svg>
