<svg width="34" height="21" viewBox="0 0 34 21" fill="none" xmlns="http://www.w3.org/2000/svg">
<g clip-path="url(#clip0_937_209)">
<path d="M28.1641 4.70996V6.04937C27.6743 5.83494 27.1417 5.71723 26.5918 5.71634V4.79785C26.5918 3.78223 26.0352 3.25489 25.0684 3.25489H8.22266C7.24609 3.25489 6.69922 3.78223 6.69922 4.79785V16.5556C6.69922 17.5713 7.24609 18.0888 8.22266 18.0888H19.4008C19.3555 18.3062 19.3359 18.5215 19.3359 18.7334C19.3359 19.0725 19.4039 19.3844 19.5292 19.6611H8.19336C6.16211 19.6611 5.12695 18.6552 5.12695 16.6435V4.70996C5.12695 2.69825 6.16211 1.68262 8.19336 1.68262H25.0977C27.1387 1.68262 28.1641 2.69825 28.1641 4.70996Z" fill="white" fill-opacity="0.85"/>
<path d="M25.2539 5.47167V5.95289C23.6416 6.52835 22.4337 8.12971 22.4414 10.0811C22.4414 11.4614 23.0375 12.6821 23.9577 13.4875C22.0094 14.1042 20.5755 15.3779 19.8562 16.7607H8.89648C8.34961 16.7607 8.03711 16.4385 8.03711 15.8818V5.47167C8.03711 4.91503 8.34961 4.59277 8.89648 4.59277H24.3945C24.9414 4.59277 25.2539 4.91503 25.2539 5.47167Z" fill="white" fill-opacity="0.2125"/>
<path d="M26.582 13.167C28.0762 13.167 29.3848 11.8193 29.3848 10.0615C29.3848 8.33301 28.0762 7.05371 26.582 7.05371C25.0781 7.05371 23.7695 8.35254 23.7695 10.0811C23.7695 11.8193 25.0781 13.167 26.582 13.167ZM21.8652 19.6611H31.2891C32.0215 19.6611 32.4805 19.3193 32.4805 18.7334C32.4805 16.917 30.2148 14.417 26.582 14.417C22.9297 14.417 20.6738 16.917 20.6738 18.7334C20.6738 19.3193 21.123 19.6611 21.8652 19.6611Z" fill="white" fill-opacity="0.85"/>
</g>
<defs>
<clipPath id="clip0_937_209">
<rect width="33.8086" height="20.6543" fill="white" transform="translate(0 0.344727)"/>
</clipPath>
</defs>
</svg>
