<svg width="65" height="65" viewBox="0 0 65 65" fill="none" xmlns="http://www.w3.org/2000/svg">
<rect x="0.724121" y="0.824829" width="63.632" height="63.632" rx="31.816" fill="#FFECEC"/>
<path d="M43.2297 22.8359C41.1985 21.901 39.0541 21.2378 36.8514 20.8632C36.55 21.4048 36.2773 21.9621 36.0344 22.5328C33.6881 22.1773 31.3021 22.1773 28.9558 22.5328C28.7127 21.9622 28.44 21.4049 28.1387 20.8632C25.9346 21.241 23.7888 21.9058 21.7555 22.8408C17.7189 28.8445 16.6247 34.6991 17.1718 40.4706C19.5357 42.2264 22.1817 43.5617 24.9945 44.4185C25.6279 43.5622 26.1884 42.6537 26.67 41.7027C25.7553 41.3592 24.8724 40.9355 24.0316 40.4364C24.2529 40.2751 24.4693 40.1088 24.6784 39.9475C27.1249 41.1041 29.7952 41.7038 32.4987 41.7038C35.2023 41.7038 37.8725 41.1041 40.319 39.9475C40.5306 40.1211 40.747 40.2873 40.9658 40.4364C40.1234 40.9363 39.2389 41.3609 38.3226 41.7051C38.8036 42.6557 39.3641 43.5634 39.998 44.4185C42.8133 43.5652 45.4613 42.2305 47.8256 40.4731C48.4676 33.78 46.7289 27.9792 43.2297 22.8359ZM27.363 36.9212C25.8383 36.9212 24.5787 35.5303 24.5787 33.8191C24.5787 32.1079 25.7946 30.7048 27.3581 30.7048C28.9217 30.7048 30.1716 32.1079 30.1448 33.8191C30.1181 35.5303 28.9168 36.9212 27.363 36.9212ZM37.6344 36.9212C36.1073 36.9212 34.8526 35.5303 34.8526 33.8191C34.8526 32.1079 36.0684 30.7048 37.6344 30.7048C39.2004 30.7048 40.4406 32.1079 40.4138 33.8191C40.3871 35.5303 39.1883 36.9212 37.6344 36.9212Z" fill="url(#paint0_linear_559_2042)"/>
<defs>
<linearGradient id="paint0_linear_559_2042" x1="18.3405" y1="32.6409" x2="46.601" y2="32.6409" gradientUnits="userSpaceOnUse">
<stop stop-color="#FF494D"/>
<stop offset="1" stop-color="#FF6F6E"/>
</linearGradient>
</defs>
</svg>
