<svg width="25" height="25" viewBox="0 0 25 25" fill="none" xmlns="http://www.w3.org/2000/svg">
<g clip-path="url(#clip0_921_77)">
<path d="M12.707 21.7719C17.7851 21.7719 21.9258 17.6216 21.9258 12.5337C21.9258 7.44581 17.7851 3.29541 12.707 3.29541C7.62891 3.29541 3.48828 7.44581 3.48828 12.5337C3.48828 17.6216 7.62891 21.7719 12.707 21.7719ZM12.707 20.1801C8.46875 20.1801 5.12891 16.811 5.12891 12.5337C5.12891 8.25635 8.46875 4.88721 12.707 4.88721C16.9453 4.88721 20.2851 8.25635 20.2851 12.5337C20.2851 16.811 16.9453 20.1801 12.707 20.1801ZM12.707 24.4087C13.0976 24.4087 13.4004 24.0962 13.4004 23.7055V17.0942C13.4004 16.7036 13.0976 16.4009 12.707 16.4009C12.3164 16.4009 12.0039 16.7036 12.0039 17.0942V23.7055C12.0039 24.0962 12.3164 24.4087 12.707 24.4087ZM1.53516 13.2368H8.14648C8.53711 13.2368 8.84961 12.9243 8.84961 12.5337C8.84961 12.143 8.53711 11.8403 8.14648 11.8403H1.53516C1.14453 11.8403 0.832031 12.143 0.832031 12.5337C0.832031 12.9243 1.14453 13.2368 1.53516 13.2368ZM12.707 8.67627C13.0976 8.67627 13.4004 8.36377 13.4004 7.97315V1.36182C13.4004 0.971192 13.0976 0.658691 12.707 0.658691C12.3164 0.658691 12.0039 0.971192 12.0039 1.36182V7.97315C12.0039 8.36377 12.3164 8.67627 12.707 8.67627ZM17.2675 13.2368H23.8789C24.2695 13.2368 24.582 12.9243 24.582 12.5337C24.582 12.143 24.2695 11.8403 23.8789 11.8403H17.2675C16.8769 11.8403 16.5644 12.143 16.5644 12.5337C16.5644 12.9243 16.8769 13.2368 17.2675 13.2368Z" fill="white" fill-opacity="0.85"/>
</g>
<defs>
<clipPath id="clip0_921_77">
<rect width="24.1113" height="23.7598" fill="white" transform="translate(0.832031 0.648926)"/>
</clipPath>
</defs>
</svg>
