<svg width="92" height="29" viewBox="0 0 92 29" fill="none" xmlns="http://www.w3.org/2000/svg">
<rect x="55.1929" y="6.28528" width="29.3557" height="17.0276" rx="4" fill="white"/>
<path d="M20.2464 11.7863C20.2464 8.28646 17.6697 5.66882 14.2579 5.66882H5.73267L7.92235 9.54266H14.1822C15.3791 9.54266 16.2751 10.5234 16.2751 11.849C16.2848 12.1469 16.2377 12.4438 16.1366 12.7218C16.0355 12.9997 15.8825 13.253 15.6869 13.4662C15.4913 13.6795 15.2571 13.8483 14.9985 13.9625C14.7399 14.0768 14.4622 14.134 14.1822 14.1308H6.80753V19.8497C6.80753 20.9401 7.21441 21.9858 7.93866 22.7568C8.66291 23.5278 9.64521 23.9609 10.6695 23.9609V17.7023H12.5394L16.0753 23.9609H20.7029L16.6916 17.2433C17.7427 16.8387 18.6496 16.0961 19.2865 15.1183C19.9235 14.1406 20.2589 12.9761 20.2464 11.7863Z" fill="black"/>
<path d="M30.4724 18.5913L26.0131 5.78076H21.7031L28.4299 24.0818H32.416L39.1428 5.78076H34.9065L30.4724 18.5913Z" fill="black"/>
<path d="M76.4352 15.5638C76.6189 15.5747 76.8028 15.5456 76.9755 15.4783C77.1483 15.411 77.3063 15.3069 77.44 15.1723C77.5736 15.0377 77.6801 14.8756 77.7529 14.6957C77.8256 14.5158 77.8632 14.3221 77.8632 14.1262C77.8632 13.9304 77.8256 13.7366 77.7529 13.5567C77.6801 13.3769 77.5736 13.2147 77.44 13.0801C77.3063 12.9456 77.1483 12.8414 76.9755 12.7741C76.8028 12.7068 76.6189 12.6777 76.4352 12.6886C76.2516 12.6777 76.0677 12.7068 75.895 12.7741C75.7222 12.8414 75.5642 12.9456 75.4305 13.0801C75.2968 13.2147 75.1904 13.3769 75.1176 13.5567C75.0449 13.7366 75.0073 13.9304 75.0073 14.1262C75.0073 14.3221 75.0449 14.5158 75.1176 14.6957C75.1904 14.8756 75.2968 15.0377 75.4305 15.1723C75.5642 15.3069 75.7222 15.411 75.895 15.4783C76.0677 15.5456 76.2516 15.5747 76.4352 15.5638Z" fill="#FF474C"/>
<path d="M80.9831 5.65308H49.2021C52.616 5.65308 55.1822 8.27967 55.1822 11.7796C55.1973 12.9683 54.8649 14.1327 54.231 15.1115C53.5972 16.0904 52.6932 16.8353 51.6442 17.2432L55.6555 23.9608H80.9831C82.1945 23.9567 83.3549 23.4415 84.2101 22.5282C85.0653 21.6149 85.5455 20.3779 85.5455 19.0883V10.5032C85.5399 9.21752 85.0573 7.98629 84.2027 7.0778C83.3481 6.1693 82.1908 5.6572 80.9831 5.65308ZM59.284 19.2182C58.98 19.2133 58.6841 19.1131 58.4335 18.9299C58.1828 18.7468 57.9885 18.489 57.875 18.1888C57.7614 17.8886 57.7336 17.5594 57.7951 17.2424C57.8566 16.9255 58.0046 16.6349 58.2206 16.4072C58.4365 16.1794 58.7109 16.0246 59.0092 15.9621C59.3075 15.8997 59.6164 15.9324 59.8974 16.0561C60.1783 16.1798 60.4186 16.3891 60.5883 16.6576C60.7579 16.9262 60.8493 17.242 60.851 17.5657C60.856 17.7855 60.8188 18.004 60.7416 18.208C60.6644 18.4119 60.5489 18.5969 60.4022 18.7516C60.2555 18.9064 60.0806 19.0275 59.8883 19.1078C59.696 19.188 59.4904 19.2256 59.284 19.2182ZM71.0401 19.0323H68.7726V18.1926C68.462 18.5304 68.0898 18.7969 67.6789 18.976C67.268 19.155 66.827 19.2428 66.3831 19.2339C64.2102 19.2339 62.5632 17.3328 62.5632 14.8226C62.5632 12.3125 64.2102 10.4092 66.3831 10.4092C66.827 10.4002 67.268 10.488 67.6789 10.6671C68.0898 10.8461 68.462 11.1127 68.7726 11.4504V10.6062H71.0401V19.0323ZM78.7955 22.1896C78.7345 21.6455 78.2991 21.2805 77.6618 21.2805H75.1944C73.6568 21.2805 72.6493 20.3378 72.6493 18.9338C72.6434 18.5025 72.7397 18.0765 72.9295 17.6953C73.1192 17.3141 73.3961 16.9899 73.7346 16.7528C73.4018 16.414 73.1379 16.0061 72.9592 15.5543C72.7805 15.1025 72.6907 14.6164 72.6955 14.1262C72.6955 11.9945 74.2942 10.4069 76.4355 10.4069C77.0053 10.4069 77.5696 10.5248 78.0972 10.754C78.3307 9.84488 79.1216 9.26716 80.2006 9.26716H80.8674V11.5064H80.3079C80.1478 11.4906 79.9873 11.5326 79.8522 11.6256C79.7172 11.7186 79.6154 11.8572 79.5633 12.0191C79.9713 12.6389 80.1882 13.3784 80.1838 14.1352C80.1838 16.2669 78.5705 17.8523 76.4271 17.8523C76.0339 17.8568 75.6421 17.8009 75.2638 17.6866C75.1579 17.7531 75.0695 17.8472 75.007 17.96C74.9445 18.0728 74.9098 18.2006 74.9063 18.3315C74.9063 18.7121 75.2007 18.9607 75.6214 18.9607H78.0888C79.6874 18.9607 80.8233 19.9012 81.1156 21.5201L78.7955 22.1896Z" fill="#FF474C"/>
<path d="M66.8329 12.7379C66.5763 12.7332 66.3214 12.7841 66.0838 12.8876C65.8462 12.991 65.6309 13.1447 65.4509 13.3395C65.2708 13.5343 65.1299 13.766 65.0366 14.0206C64.9434 14.2752 64.8997 14.5473 64.9083 14.8204C64.8997 15.0962 64.9434 15.371 65.0366 15.6285C65.1299 15.886 65.2708 16.1209 65.4511 16.3192C65.6313 16.5175 65.8472 16.6752 66.0858 16.7829C66.3245 16.8906 66.5811 16.9461 66.8403 16.9461C67.0995 16.9461 67.3561 16.8906 67.5948 16.7829C67.8334 16.6752 68.0493 16.5175 68.2295 16.3192C68.4098 16.1209 68.5507 15.886 68.644 15.6285C68.7372 15.371 68.7809 15.0962 68.7723 14.8204C68.781 14.546 68.7369 14.2725 68.6427 14.0169C68.5486 13.7612 68.4063 13.5287 68.2247 13.3337C68.0431 13.1387 67.8259 12.9853 67.5866 12.8828C67.3473 12.7804 67.0908 12.7311 66.8329 12.7379Z" fill="#FF474C"/>
<path d="M55.1823 11.7706C55.1823 8.27071 52.6161 5.65308 49.2022 5.65308H41.7539V23.9452H45.6158V17.6866H47.4837L51.0217 23.9452H55.6493L51.638 17.2275C52.6871 16.8211 53.5917 16.0777 54.2267 15.1001C54.8616 14.1225 55.1956 12.959 55.1823 11.7706ZM49.1286 14.1061H45.6158V9.51795H49.1286C50.3233 9.51795 51.232 10.4987 51.232 11.8243C51.2418 12.1232 51.1943 12.421 51.0926 12.6997C50.9908 12.9784 50.8369 13.2322 50.6402 13.4456C50.4434 13.659 50.208 13.8276 49.9481 13.9412C49.6883 14.0547 49.4094 14.1108 49.1286 14.1061Z" fill="black"/>
</svg>
