<?xml version="1.0" encoding="UTF-8"?>
<svg id="Layer_1" data-name="Layer 1" xmlns="http://www.w3.org/2000/svg" xmlns:xlink="http://www.w3.org/1999/xlink" version="1.1" viewBox="0 0 101.7 100.7">
  <defs>
    <style>
      .cls-1 {
        clip-path: url(#clippath);
      }

      .cls-2 {
        stroke-width: 0px;
      }

      .cls-2, .cls-3 {
        fill: #000;
      }

      .cls-4 {
        isolation: isolate;
      }
    </style>
    <clipPath id="clippath">
      <path class="cls-2" d="M53.2,96.5v1.9c0,1.3-1,2.3-2.3,2.3-1.3,0-2.3-1-2.3-2.3h0v-7.6c-21.2-1.2-38-18.4-38.7-39.6H2.3c-1.3,0-2.3-1-2.3-2.3,0-1.3,1-2.3,2.3-2.3h7.7C11.6,27.6,26.1,12.2,45,9.4v11.9c0,2-1.3,3.7-3.2,4.4-9,3.3-15.5,11.4-16.7,21h.5c1.3,0,2.3,1,2.3,2.3,0,1.3-1,2.3-2.3,2.3h-.6c.7,12.9,10.7,23.3,23.5,24.4v-.3c0-1.3,1-2.3,2.3-2.3,1.3,0,2.3,1,2.3,2.3h0v21.1ZM99.4,46.6h-7.6c-1.7-20.4-18.2-36.4-38.6-37.6V2.3c0-1.3-1-2.3-2.3-2.3-1.3,0-2.3,1-2.3,2.3h0v23.3c0,1.3,1,2.3,2.3,2.3,1.3,0,2.3-1,2.3-2.3h0v-1.5c12.1,1.1,21.8,10.4,23.4,22.5h-.1c-1.3,0-2.3,1-2.3,2.3,0,1.3,1,2.3,2.3,2.3h.3c-.5,10.3-7.1,19.4-16.8,23-1.9.7-3.1,2.4-3.2,4.4v11.9c19.7-2.9,34.5-19.4,35.2-39.3h7.5c1.3,0,2.3-1,2.3-2.3,0-1.3-1-2.3-2.3-2.3ZM37.9,36.8c3.4-3.5,8.1-5.4,13-5.3,10.1,0,18.3,8,18.4,18.1,0,0,0,.2,0,.3,0,10.1-8,18.3-18.1,18.4-.1,0-.2,0-.4,0h-1.9c-4.3-.3-8.2-2.2-11.2-5.3-3.5-3.4-5.5-8.1-5.4-13,0-5,1.9-9.7,5.5-13.2ZM41,39.9c-2.8,2.6-4.3,6.3-4.2,10.1,0,3.8,1.4,7.4,4.1,10,2.2,2.3,5.2,3.7,8.3,4h1.6c7.6,0,13.9-6,14-13.7,0-.1,0-.2,0-.3,0-7.7-6.1-13.9-13.7-14,0,0-.2,0-.3,0-3.7-.1-7.3,1.3-9.9,3.9Z"/>
    </clipPath>
  </defs>
  <path class="cls-3" d="M53.2,96.5v1.9c0,1.3-1,2.3-2.3,2.3-1.3,0-2.3-1-2.3-2.3h0v-7.6c-21.2-1.2-38-18.4-38.7-39.6H2.3c-1.3,0-2.3-1-2.3-2.3,0-1.3,1-2.3,2.3-2.3h7.7C11.6,27.6,26.1,12.2,45,9.4v11.9c0,2-1.3,3.7-3.2,4.4-9,3.3-15.5,11.4-16.7,21h.5c1.3,0,2.3,1,2.3,2.3,0,1.3-1,2.3-2.3,2.3h-.6c.7,12.9,10.7,23.3,23.5,24.4v-.3c0-1.3,1-2.3,2.3-2.3,1.3,0,2.3,1,2.3,2.3h0v21.1ZM99.4,46.6h-7.6c-1.7-20.4-18.2-36.4-38.6-37.6V2.3c0-1.3-1-2.3-2.3-2.3-1.3,0-2.3,1-2.3,2.3h0v23.3c0,1.3,1,2.3,2.3,2.3,1.3,0,2.3-1,2.3-2.3h0v-1.5c12.1,1.1,21.8,10.4,23.4,22.5h-.1c-1.3,0-2.3,1-2.3,2.3,0,1.3,1,2.3,2.3,2.3h.3c-.5,10.3-7.1,19.4-16.8,23-1.9.7-3.1,2.4-3.2,4.4v11.9c19.7-2.9,34.5-19.4,35.2-39.3h7.5c1.3,0,2.3-1,2.3-2.3,0-1.3-1-2.3-2.3-2.3ZM37.9,36.8c3.4-3.5,8.1-5.4,13-5.3,10.1,0,18.3,8,18.4,18.1,0,0,0,.2,0,.3,0,10.1-8,18.3-18.1,18.4-.1,0-.2,0-.4,0h-1.9c-4.3-.3-8.2-2.2-11.2-5.3-3.5-3.4-5.5-8.1-5.4-13,0-5,1.9-9.7,5.5-13.2ZM41,39.9c-2.8,2.6-4.3,6.3-4.2,10.1,0,3.8,1.4,7.4,4.1,10,2.2,2.3,5.2,3.7,8.3,4h1.6c7.6,0,13.9-6,14-13.7,0-.1,0-.2,0-.3,0-7.7-6.1-13.9-13.7-14,0,0-.2,0-.3,0-3.7-.1-7.3,1.3-9.9,3.9Z"/>
  <g class="cls-1">
    <image class="cls-4" width="234" height="231" transform="translate(-5.2 -5.1) scale(.5)" xlink:href="target-black-1.png"/>
    <rect class="cls-2" x="-5" y="-5" width="111.7" height="110.7"/>
  </g>
</svg>