<svg width="31" height="30" viewBox="0 0 31 30" fill="none" xmlns="http://www.w3.org/2000/svg">
<path d="M5.01269 14.6143C8.08887 15.6982 11.5557 16.2256 15.2275 16.2256C18.9092 16.2256 22.376 15.6982 25.4521 14.6143L25.4424 12.9639C22.4443 14.1357 18.9971 14.7119 15.2275 14.7119C11.4678 14.7119 8.02051 14.1357 5.02246 12.9541L5.01269 14.6143ZM13.7139 17.9931H16.751C17.4346 17.9931 17.8349 17.6123 17.8349 16.9287V15.4248H12.6299V16.9287C12.6299 17.6123 13.0303 17.9931 13.7139 17.9931ZM6.94629 24.458H23.5185C25.54 24.458 26.5361 23.4814 26.5361 21.4795V11.9775C26.5361 9.97559 25.54 8.99903 23.5185 8.99903H6.94629C4.93457 8.99903 3.92871 9.97559 3.92871 11.9775V21.4795C3.92871 23.4814 4.93457 24.458 6.94629 24.458ZM6.96582 22.8955C6.00879 22.8955 5.50098 22.4072 5.50098 21.4013V12.0557C5.50098 11.0596 6.00879 10.5615 6.96582 10.5615H23.499C24.456 10.5615 24.9639 11.0596 24.9639 12.0557V21.4013C24.9639 22.4072 24.456 22.8955 23.499 22.8955H6.96582ZM10.2764 9.84864H11.79V8.12012C11.79 7.37793 12.2295 6.95801 12.9912 6.95801H17.4736C18.2353 6.95801 18.665 7.37793 18.665 8.12012V9.82911H20.1787V8.22754C20.1787 6.3916 19.2119 5.53223 17.4443 5.53223H13.0107C11.3408 5.53223 10.2764 6.3916 10.2764 8.22754V9.84864Z" fill="white" fill-opacity="0.85"/>
</svg>
