<svg width="30" height="31" viewBox="0 0 30 31" fill="none" xmlns="http://www.w3.org/2000/svg">
<path d="M8.89649 24.3696H20.7422C22.793 24.3696 23.8086 23.354 23.8086 21.3423V9.41846C23.8086 7.40674 22.793 6.39111 20.7422 6.39111H8.89649C6.85547 6.39111 5.83008 7.39697 5.83008 9.41846V21.3423C5.83008 23.3638 6.85547 24.3696 8.89649 24.3696ZM8.91602 22.7974C7.93946 22.7974 7.40235 22.2798 7.40235 21.2642V9.49658C7.40235 8.48096 7.93946 7.96338 8.91602 7.96338H20.7227C21.6895 7.96338 22.2363 8.48096 22.2363 9.49658V21.2642C22.2363 22.2798 21.6895 22.7974 20.7227 22.7974H8.91602Z" fill="white" fill-opacity="0.85"/>
<path d="M10.4395 12.5728C11.2988 12.5825 12.0215 11.8599 12.0215 10.9712C12.0215 10.1021 11.2988 9.39893 10.4395 9.39893C9.56055 9.39893 8.84766 10.1021 8.84766 10.9712C8.84766 11.8599 9.56055 12.5532 10.4395 12.5728ZM19.2188 12.5728C20.0781 12.5825 20.791 11.8599 20.791 10.9712C20.791 10.1021 20.0781 9.39893 19.2188 9.39893C18.3399 9.39893 17.6172 10.1021 17.6172 10.9712C17.6172 11.8599 18.3399 12.5532 19.2188 12.5728ZM14.8242 16.9673C15.6836 16.9673 16.4063 16.2544 16.4063 15.3657C16.4063 14.4966 15.6836 13.7935 14.8242 13.7935C13.9453 13.7935 13.2422 14.4966 13.2422 15.3657C13.2422 16.2544 13.9453 16.9673 14.8242 16.9673ZM10.4395 21.3618C11.2988 21.3618 12.0215 20.6489 12.0215 19.77C12.0215 18.8911 11.2988 18.188 10.4395 18.188C9.56055 18.188 8.85742 18.8911 8.85742 19.77C8.85742 20.6489 9.56055 21.3618 10.4395 21.3618ZM19.2188 21.3618C20.0781 21.3618 20.791 20.6489 20.791 19.77C20.791 18.8911 20.0781 18.188 19.2188 18.188C18.3399 18.188 17.6367 18.8911 17.6367 19.77C17.6367 20.6489 18.3399 21.3618 19.2188 21.3618Z" fill="white" fill-opacity="0.85"/>
</svg>
