<svg width="31" height="30" viewBox="0 0 31 30" fill="none" xmlns="http://www.w3.org/2000/svg">
<path d="M3.73829 26.2647H5.73047C6.98047 26.2647 7.80079 25.3662 7.80079 24.4092C7.80079 23.8525 7.56641 23.2764 7.00977 22.9932C8.85547 22.251 10.0078 20.9912 10.3789 19.1651C11.8145 20.0049 13.9727 20.1318 16.2188 19.8975C16.1895 21.2451 15.9844 23.169 15.9844 24.0381C15.9844 25.5127 16.7461 26.3037 18.1817 26.3037H19.8516C21.3164 26.3037 22.0977 25.3662 22.0977 24.2334C22.0977 23.4522 21.7559 22.6025 20.584 22.1338C20.6524 21.1865 21.0918 19.0772 21.3848 18.208C21.8731 16.792 22.8594 15.5811 22.8594 13.5889C22.8594 12.7197 23.0254 12.251 23.1914 11.8701C23.8457 12.2607 24.4414 12.4463 25.1348 12.4463C26.9219 12.4463 28.7676 10.5811 28.7676 8.62793C28.7676 7.55371 27.3028 6.89941 26.4922 6.38184C25.5254 5.70801 24.8711 4.81934 23.836 4.36035L23.543 5.73731C24.2754 6.1084 24.8028 6.85059 25.6621 7.41699C26.5801 8.03223 27.2539 8.09082 27.2539 8.79395C27.2539 9.79981 26.17 10.9228 25.1348 10.9228C24.5586 10.9228 24.0996 10.7471 23.2989 10.1904C22.9278 9.93652 22.5469 9.98535 22.3223 10.3369C21.5801 11.4209 21.3457 12.29 21.3457 13.5889C21.3457 15.0244 20.5254 15.9522 19.92 17.7783C19.5977 18.794 19.0508 21.333 19.0508 22.4854C19.0508 22.7686 19.1485 23.0127 19.5 23.1397C20.4375 23.4033 20.5743 23.8428 20.5743 24.1455C20.5743 24.5459 20.3203 24.7412 19.8516 24.7412H18.2305C17.7422 24.7412 17.5176 24.4873 17.5176 23.9697C17.5176 22.0947 17.8692 19.5557 17.8692 18.6475C17.8692 18.208 17.4688 17.9736 17 18.1299C14.3145 19.0283 11.5508 18.4326 10.0176 17.2119C9.58789 16.8604 9.08985 17.124 9.08985 17.5928C9.08985 20.1514 7.86915 21.3916 5.125 22.0947C4.5586 22.251 4.5586 23.1006 5.125 23.1983C5.88672 23.3154 6.27735 23.667 6.27735 24.1455C6.27735 24.5264 5.98438 24.7412 5.55469 24.7412H3.92383C3.49415 24.7412 3.21094 24.4287 3.21094 23.9697V22.1045C3.21094 21.3623 3.50391 20.9229 4.83204 19.8682C5.84766 19.0576 6.13086 17.9541 6.13086 15.6299C6.13086 14.419 6.27735 13.042 6.79493 12.3584L5.38868 10.7764C4.93946 10.2686 5.61329 9.73145 6.04297 10.2295L7.39063 11.792C7.56641 11.6553 7.82032 11.5771 8.16211 11.5576L16.4434 10.8643C20.1055 9.63379 19.9395 8.05176 21.0918 6.85059L20.1836 5.63965C18.1817 7.45606 18.6016 8.48145 16.1309 9.36035L8.50391 10.0049C8.23047 10.0244 7.97657 10.0537 7.74219 10.083L7.0293 9.2334C5.53516 7.46582 2.67383 9.61426 4.31446 11.5674L5.06641 12.4658C4.77344 13.3545 4.60743 14.419 4.60743 15.6299C4.60743 17.7002 4.45118 18.2373 3.9043 18.6768C2.3418 19.9072 1.69727 20.8252 1.69727 22.1045V24.1358C1.69727 25.3858 2.54687 26.2647 3.73829 26.2647ZM21.8243 8.17871C23.4161 8.17871 24.2266 5.50293 24.2266 4.74121C24.2266 4.06738 23.875 3.70605 23.1719 3.70605H20.4864C19.7832 3.70605 19.4219 4.06738 19.4219 4.74121C19.4219 5.50293 20.2422 8.17871 21.8243 8.17871ZM21.8243 6.86035C21.3262 6.86035 20.9258 5.7959 20.8184 5.2002C20.7989 5.10254 20.8672 5.02441 20.9649 5.02441H22.6934C22.7911 5.02441 22.8594 5.10254 22.8399 5.2002C22.7325 5.7959 22.3223 6.86035 21.8243 6.86035ZM24.3535 8.78418C24.7539 8.78418 25.0762 8.45215 25.0762 8.04199C25.0762 7.63184 24.7539 7.31934 24.3535 7.31934C23.9434 7.31934 23.6211 7.63184 23.6211 8.04199C23.6211 8.45215 23.9434 8.78418 24.3535 8.78418Z" fill="white" fill-opacity="0.85"/>
</svg>
