<svg width="31" height="30" viewBox="0 0 31 30" fill="none" xmlns="http://www.w3.org/2000/svg">
<path d="M15.2373 23.374C23.1279 23.374 28.5772 16.9971 28.5772 15.0049C28.5772 13.0029 23.1182 6.63574 15.2373 6.63574C7.45411 6.63574 1.8877 13.0029 1.8877 15.0049C1.8877 16.9971 7.44433 23.374 15.2373 23.374ZM15.2373 21.8311C8.80175 21.8311 3.59668 16.3818 3.59668 15.0049C3.59668 13.8428 8.80175 8.17871 15.2373 8.17871C21.6436 8.17871 26.8682 13.8428 26.8682 15.0049C26.8682 16.3818 21.6436 21.8311 15.2373 21.8311ZM15.2373 20.4737C18.2744 20.4737 20.7158 17.9834 20.7158 15.0049C20.7158 11.9482 18.2744 9.53614 15.2373 9.53614C12.1807 9.53614 9.73926 11.9482 9.73926 15.0049C9.73926 17.9834 12.1807 20.4737 15.2373 20.4737ZM15.2373 16.8213C14.2217 16.8213 13.4014 16.001 13.4014 15.0049C13.4014 13.999 14.2217 13.1885 15.2373 13.1885C16.2432 13.1885 17.0635 13.999 17.0635 15.0049C17.0635 16.001 16.2432 16.8213 15.2373 16.8213Z" fill="white" fill-opacity="0.85"/>
</svg>
