<svg width="65" height="65" viewBox="0 0 65 65" fill="none" xmlns="http://www.w3.org/2000/svg">
<rect x="0.810547" y="0.824829" width="63.632" height="63.632" rx="31.816" fill="#FFECEC"/>
<path d="M44.7572 32.0169L32.6252 39.2973L20.4931 32.0169C20.23 31.8591 19.9149 31.8122 19.6172 31.8866C19.3195 31.961 19.0635 32.1507 18.9056 32.4138C18.7477 32.677 18.7008 32.9921 18.7753 33.2898C18.8497 33.5875 19.0394 33.8435 19.3025 34.0013L32.0304 41.6381C32.2104 41.7462 32.4164 41.8033 32.6263 41.8033C32.8363 41.8033 33.0422 41.7462 33.2222 41.6381L45.9501 34.0013C46.2133 33.8435 46.4029 33.5875 46.4774 33.2898C46.5518 32.9921 46.5049 32.677 46.347 32.4138C46.1891 32.1507 45.9332 31.961 45.6354 31.8866C45.3377 31.8122 45.0226 31.8591 44.7595 32.0169H44.7572Z" fill="url(#paint0_linear_559_2031)"/>
<path d="M44.7572 37.3026L32.6252 44.5818L20.4931 37.3026C20.3628 37.2244 20.2184 37.1727 20.0681 37.1503C19.9178 37.1279 19.7646 37.1354 19.6172 37.1722C19.4698 37.2091 19.3311 37.2746 19.209 37.3651C19.0869 37.4556 18.9838 37.5692 18.9056 37.6995C18.8274 37.8298 18.7757 37.9742 18.7533 38.1245C18.731 38.2748 18.7384 38.428 18.7753 38.5754C18.8497 38.8731 19.0393 39.1291 19.3025 39.287L32.0304 46.9237C32.2104 47.0319 32.4164 47.089 32.6263 47.089C32.8363 47.089 33.0422 47.0319 33.2222 46.9237L45.9501 39.287C46.2133 39.1291 46.4029 38.8731 46.4774 38.5754C46.5518 38.2777 46.5049 37.9626 46.347 37.6995C46.1891 37.4363 45.9332 37.2467 45.6354 37.1722C45.3377 37.0978 45.0226 37.1447 44.7595 37.3026H44.7572Z" fill="url(#paint1_linear_559_2031)"/>
<path d="M19.3015 28.9876L30.8539 35.9197C31.3887 36.2414 32.0012 36.4114 32.6254 36.4114C33.2496 36.4114 33.862 36.2414 34.3969 35.9197L45.9492 28.9876C46.1202 28.8847 46.2618 28.7393 46.3601 28.5656C46.4583 28.3918 46.51 28.1956 46.51 27.996C46.51 27.7963 46.4583 27.6001 46.3601 27.4264C46.2618 27.2526 46.1202 27.1072 45.9492 27.0043L34.3969 20.0723C33.8618 19.7509 33.2495 19.5811 32.6254 19.5811C32.0012 19.5811 31.3889 19.7509 30.8539 20.0723L19.3015 27.0043C19.1305 27.1072 18.9889 27.2526 18.8906 27.4264C18.7924 27.6001 18.7407 27.7963 18.7407 27.996C18.7407 28.1956 18.7924 28.3918 18.8906 28.5656C18.9889 28.7393 19.1305 28.8847 19.3015 28.9876Z" fill="url(#paint2_linear_559_2031)"/>
<defs>
<linearGradient id="paint0_linear_559_2031" x1="19.9084" y1="36.8277" x2="45.2938" y2="36.8277" gradientUnits="userSpaceOnUse">
<stop stop-color="#FF494D"/>
<stop offset="1" stop-color="#FF6F6E"/>
</linearGradient>
<linearGradient id="paint1_linear_559_2031" x1="19.9084" y1="42.1133" x2="45.2938" y2="42.1133" gradientUnits="userSpaceOnUse">
<stop stop-color="#FF494D"/>
<stop offset="1" stop-color="#FF6F6E"/>
</linearGradient>
<linearGradient id="paint2_linear_559_2031" x1="19.9084" y1="27.9963" x2="45.292" y2="27.9963" gradientUnits="userSpaceOnUse">
<stop stop-color="#FF494D"/>
<stop offset="1" stop-color="#FF6F6E"/>
</linearGradient>
</defs>
</svg>
