<svg width="20" height="4" viewBox="0 0 20 4" fill="none" xmlns="http://www.w3.org/2000/svg">
<g clip-path="url(#clip0_892_82)">
<path d="M17.2969 3.70117C18.3223 3.70117 19.1524 2.88086 19.1524 1.85547C19.1524 0.830078 18.3223 0 17.2969 0C16.2715 0 15.4414 0.830078 15.4414 1.85547C15.4414 2.88086 16.2715 3.70117 17.2969 3.70117Z" fill="white" fill-opacity="0.85"/>
<path d="M10.041 3.70117C11.0664 3.70117 11.8867 2.88086 11.8867 1.85547C11.8867 0.830078 11.0664 0 10.041 0C9.01563 0 8.18555 0.830078 8.18555 1.85547C8.18555 2.88086 9.01563 3.70117 10.041 3.70117Z" fill="white" fill-opacity="0.85"/>
<path d="M2.78516 3.70117C3.81055 3.70117 4.63086 2.88086 4.63086 1.85547C4.63086 0.830078 3.81055 0 2.78516 0C1.75977 0 0.929688 0.830078 0.929688 1.85547C0.929688 2.88086 1.75977 3.70117 2.78516 3.70117Z" fill="white" fill-opacity="0.85"/>
</g>
<defs>
<clipPath id="clip0_892_82">
<rect width="18.584" height="3.7207" fill="white" transform="translate(0.929688)"/>
</clipPath>
</defs>
</svg>
