<svg width="31" height="30" viewBox="0 0 31 30" fill="none" xmlns="http://www.w3.org/2000/svg">
<path d="M8.95313 20.5908C11.5801 20.5908 13.8262 19.7315 15.2324 18.1885C16.6387 19.7315 18.8848 20.5908 21.5117 20.5908C25.7598 20.5908 29.0605 18.0127 29.0605 14.6924C29.0605 13.3057 28.4844 12.4853 27.4688 12.4853C27.0488 12.4853 26.6875 12.6611 26.3555 13.0225C25.9453 13.4717 25.3203 13.7842 24.6074 13.7842C22.1563 13.7842 21.5898 10.415 17.5762 10.415C16.6777 10.415 15.877 10.6689 15.2324 11.1279C14.5879 10.6689 13.7871 10.415 12.8887 10.415C8.875 10.415 8.3086 13.7842 5.85742 13.7842C5.14453 13.7842 4.51953 13.4717 4.10938 13.0225C3.77735 12.6611 3.41602 12.4853 2.9961 12.4853C1.98047 12.4853 1.4043 13.3057 1.4043 14.6924C1.4043 18.0127 4.70508 20.5908 8.95313 20.5908ZM8.95313 19.0186C5.59375 19.0186 2.97657 17.1045 2.97657 14.6826C2.97657 14.4092 3.22071 14.3896 3.37696 14.4971C3.96289 15.0537 4.90039 15.3564 5.85742 15.3564C7.56641 15.3564 8.69922 14.3994 9.66602 13.5693C10.6621 12.7295 11.502 11.9873 12.8887 11.9873C13.8164 11.9873 14.5391 12.3975 14.9102 13.0713C15.0566 13.3545 15.4082 13.3643 15.5449 13.0713C15.916 12.3975 16.6484 11.9873 17.5762 11.9873C18.9629 11.9873 19.8027 12.7295 20.7988 13.5693C21.7656 14.3994 22.8984 15.3564 24.6074 15.3564C25.5645 15.3564 26.502 15.0439 27.1172 14.458C27.2832 14.3408 27.4883 14.3506 27.4883 14.6826C27.4883 17.1045 24.8711 19.0186 21.5117 19.0186C18.6113 19.0186 16.4434 17.8564 15.6231 15.9717C15.4668 15.6103 14.9981 15.6006 14.8418 15.9717C14.0313 17.8564 11.8633 19.0186 8.95313 19.0186Z" fill="white" fill-opacity="0.85"/>
</svg>
