<svg width="31" height="30" viewBox="0 0 31 30" fill="none" xmlns="http://www.w3.org/2000/svg">
<path d="M4.788 22.7394C6.60441 25.1906 10.413 25.8547 12.7763 24.0969C14.7977 22.6027 15.2274 20.2492 13.7333 18.2766C12.3368 16.4016 10.2665 15.9426 8.64542 17.1633C7.12198 18.3059 7.65909 19.9465 6.80948 20.5812C6.0673 21.1379 5.37393 20.8254 4.83682 21.2355C4.4462 21.548 4.31925 22.1144 4.788 22.7394ZM6.78019 22.5832C6.65323 22.4465 6.663 22.3098 6.75089 22.2219C6.88761 22.0949 7.43448 22.0559 7.85441 21.6359C8.80167 20.6984 8.47941 19.3215 9.57316 18.4719C10.4814 17.7492 11.7411 18.0129 12.5907 19.1066C13.5478 20.3469 13.2157 21.8605 11.8974 22.8762C10.4228 24.0383 8.14737 24.0285 6.78019 22.5832ZM14.3388 20.4152C15.3934 20.298 16.2821 19.7707 17.2782 18.7746C20.413 15.6496 25.1981 8.64769 25.6181 8.06175C26.8485 6.35277 24.7392 4.26292 23.0204 5.46409C22.4442 5.87425 15.4325 10.6496 12.3075 13.8039C11.331 14.7903 10.7939 15.6691 10.6669 16.7043L12.2001 17.1242C12.2196 16.4113 12.6005 15.718 13.411 14.9172C16.5067 11.8606 23.3524 7.16331 23.7724 6.85081C24.1044 6.60667 24.4755 6.95824 24.2216 7.31956C23.9677 7.69066 19.2118 14.6242 16.1649 17.6711C15.3642 18.4719 14.7489 18.7941 14.0751 18.8723L14.3388 20.4152ZM16.0673 17.9641L17.3173 17.6418C17.1806 15.7766 15.3544 13.9211 13.5185 13.7649L13.0985 15.0148C14.3485 14.9855 16.0673 16.7043 16.0673 17.9641Z" fill="white" fill-opacity="0.85"/>
</svg>
