<svg width="65" height="65" viewBox="0 0 65 65" fill="none" xmlns="http://www.w3.org/2000/svg">
<rect x="0.724121" y="0.824829" width="63.632" height="63.632" rx="31.816" fill="#FFECEC"/>
<path d="M40.5619 25.2827C39.0376 24.5811 37.4283 24.0834 35.7753 23.8022C35.5491 24.2087 35.3444 24.627 35.1622 25.0552C33.4014 24.7885 31.6108 24.7885 29.85 25.0552C29.6676 24.627 29.4629 24.2088 29.2368 23.8022C27.5828 24.0858 25.9725 24.5847 24.4466 25.2863C21.4173 29.7919 20.5961 34.1855 21.0067 38.5167C22.7807 39.8343 24.7664 40.8364 26.8773 41.4794C27.3526 40.8367 27.7732 40.1549 28.1346 39.4413C27.4482 39.1835 26.7856 38.8656 26.1547 38.491C26.3207 38.3699 26.4831 38.2452 26.6401 38.1241C28.4761 38.9921 30.4799 39.4421 32.5088 39.4421C34.5377 39.4421 36.5416 38.9921 38.3776 38.1241C38.5363 38.2544 38.6987 38.3791 38.863 38.491C38.2308 38.8662 37.567 39.1848 36.8794 39.4431C37.2403 40.1565 37.6609 40.8377 38.1367 41.4794C40.2494 40.839 42.2366 39.8374 44.0109 38.5185C44.4927 33.4957 43.1879 29.1424 40.5619 25.2827ZM28.6547 35.853C27.5105 35.853 26.5652 34.8092 26.5652 33.525C26.5652 32.2409 27.4777 31.1879 28.6511 31.1879C29.8244 31.1879 30.7624 32.2409 30.7424 33.525C30.7223 34.8092 29.8208 35.853 28.6547 35.853ZM36.3629 35.853C35.2169 35.853 34.2753 34.8092 34.2753 33.525C34.2753 32.2409 35.1877 31.1879 36.3629 31.1879C37.5381 31.1879 38.4688 32.2409 38.4487 33.525C38.4287 34.8092 37.529 35.853 36.3629 35.853Z" fill="url(#paint0_linear_559_2042)"/>
<defs>
<linearGradient id="paint0_linear_559_2042" x1="21.8838" y1="32.6408" x2="43.0919" y2="32.6408" gradientUnits="userSpaceOnUse">
<stop stop-color="#FF494D"/>
<stop offset="1" stop-color="#FF6F6E"/>
</linearGradient>
</defs>
</svg>
