<svg width="31" height="30" viewBox="0 0 31 30" fill="none" xmlns="http://www.w3.org/2000/svg">
<path d="M10.2717 25.708H20.1936C21.8733 25.708 22.9279 24.6631 22.9572 22.9932L23.0842 13.4619L25.4182 13.999C26.3557 14.2139 26.9611 13.8233 27.2053 12.8565L28.0647 9.38967C28.3088 8.43263 27.9377 7.76857 27.0393 7.38771L20.2424 4.48733C19.7346 4.26272 19.3928 4.28225 18.9729 4.47756C17.7033 5.08303 16.6682 5.39553 15.2326 5.39553C13.7873 5.39553 12.7619 5.08303 11.4826 4.47756C11.0725 4.28225 10.7209 4.26272 10.2131 4.48733L3.42598 7.38771C2.51778 7.76857 2.15645 8.43263 2.39083 9.38967L3.25997 12.8565C3.49434 13.8233 4.09981 14.2139 5.04708 13.999L7.38106 13.4619L7.50801 22.9932C7.52754 24.6631 8.58223 25.708 10.2717 25.708ZM10.2912 24.2041C9.5002 24.2041 9.02169 23.7158 9.01192 22.915L8.8752 12.0264C8.8752 11.792 8.68965 11.626 8.42598 11.6846L5.00801 12.4463C4.82247 12.4854 4.69551 12.4072 4.65645 12.251L3.88497 9.17482C3.82637 8.93068 3.89473 8.84279 4.09004 8.76467L11.1115 5.76662C12.4201 6.45998 13.6897 6.81154 15.2326 6.81154C16.7756 6.81154 18.0354 6.45998 19.3537 5.76662L26.3752 8.76467C26.5608 8.84279 26.6389 8.93068 26.5803 9.17482L25.799 12.251C25.76 12.4072 25.6428 12.4854 25.4572 12.4463L22.0393 11.6846C21.7658 11.626 21.5901 11.792 21.5901 12.0264L21.4533 22.915C21.4436 23.7158 20.9651 24.2041 20.174 24.2041H10.2912ZM15.2326 9.74123C17.5373 9.74123 19.5783 8.1006 20.008 5.83498L18.5822 5.20998C18.3772 6.93849 16.9123 8.23732 15.2326 8.23732C13.5432 8.23732 12.0881 6.93849 11.883 5.20998L10.4572 5.83498C10.8771 8.1006 12.9182 9.74123 15.2326 9.74123Z" fill="white" fill-opacity="0.85"/>
</svg>
