<svg width="64" height="65" viewBox="0 0 64 65" fill="none" xmlns="http://www.w3.org/2000/svg">
<rect x="0.0253906" y="0.824829" width="63.632" height="63.632" rx="31.816" fill="#FFECEC"/>
<path d="M39.3626 21.07H38.784V20.4915C38.784 19.5323 38.0065 18.7559 37.0484 18.7559C36.0904 18.7559 35.3128 19.5323 35.3128 20.4915V21.07H28.3703V20.4915C28.3703 19.5323 27.5927 18.7559 26.6347 18.7559C25.6766 18.7559 24.899 19.5323 24.899 20.4915V21.07H24.3205C20.8122 21.07 17.9565 23.9246 17.9565 27.434V40.1619C17.9565 43.6713 20.8122 46.5259 24.3205 46.5259H39.3626C42.8709 46.5259 45.7265 43.6713 45.7265 40.1619V27.434C45.7265 23.9246 42.8709 21.07 39.3626 21.07ZM39.3626 43.0546H24.3205C22.7249 43.0546 21.4278 41.7564 21.4278 40.1619V29.1696H42.2553V40.1619C42.2553 41.7564 40.9582 43.0546 39.3626 43.0546ZM29.5274 33.2194V35.5336C29.5274 36.4916 28.7498 37.2692 27.7918 37.2692H25.4776C24.5195 37.2692 23.742 36.4916 23.742 35.5336V33.2194C23.742 32.2613 24.5195 31.4838 25.4776 31.4838H27.7918C28.7498 31.4838 29.5274 32.2613 29.5274 33.2194Z" fill="url(#paint0_linear_559_2036)"/>
<defs>
<linearGradient id="paint0_linear_559_2036" x1="19.1242" y1="32.6409" x2="44.5085" y2="32.6409" gradientUnits="userSpaceOnUse">
<stop stop-color="#FF494D"/>
<stop offset="1" stop-color="#FF6F6E"/>
</linearGradient>
</defs>
</svg>
