<svg width="31" height="30" viewBox="0 0 31 30" fill="none" xmlns="http://www.w3.org/2000/svg">
<path d="M10.8232 8.5791L14.7588 8.41308L18.6845 8.55957V4.47754C18.6845 3.8623 18.2451 3.45215 17.6103 3.45215L11.8975 3.46191C11.2725 3.46191 10.8232 3.87207 10.8232 4.4873V8.5791ZM11.8975 26.5479L17.6103 26.5576C18.2451 26.5576 18.6845 26.1377 18.6845 25.5322V21.4209L14.7588 21.5576L10.8232 21.4112V25.5225C10.8232 26.1279 11.2725 26.5479 11.8975 26.5479ZM14.7588 22.6709C19.0459 22.6709 22.4345 19.2822 22.4345 14.9951C22.4345 10.6982 19.0459 7.30957 14.7588 7.30957C10.4619 7.30957 7.07324 10.6982 7.07324 14.9951C7.07324 19.2822 10.4619 22.6709 14.7588 22.6709ZM14.7588 21.1963C11.0772 21.1963 8.54785 18.6768 8.54785 14.9951C8.54785 11.3135 11.0772 8.78418 14.7588 8.78418C18.4306 8.78418 20.9599 11.3135 20.9599 14.9951C20.9599 18.6768 18.4306 21.1963 14.7588 21.1963ZM21.9072 16.4697H22.9033C23.1865 16.4697 23.3916 16.2647 23.3916 15.9717V13.999C23.3916 13.7158 23.1865 13.501 22.9033 13.501H21.9072V16.4697Z" fill="white" fill-opacity="0.85"/>
<path d="M15.3743 15.542L18.4993 12.8174C18.7727 12.5733 18.7727 12.1533 18.509 11.8799C18.2649 11.6358 17.8645 11.6455 17.5813 11.8799L14.759 14.3311L12.9817 12.8369C12.718 12.6123 12.3079 12.6514 12.0637 12.9248C11.8293 13.1983 11.8684 13.6182 12.1516 13.8623L14.1536 15.542C14.5637 15.9033 14.9739 15.9033 15.3743 15.542Z" fill="white" fill-opacity="0.85"/>
</svg>
