<svg width="68" height="68" viewBox="0 0 68 68" fill="none" xmlns="http://www.w3.org/2000/svg">
<path d="M33.959 0.353943C15.4865 0.353943 0.458984 15.3815 0.458984 33.8539C0.458984 52.3264 15.4865 67.3539 33.959 67.3539C52.4314 67.3539 67.459 52.3264 67.459 33.8539C67.459 15.3815 52.4314 0.353943 33.959 0.353943ZM33.959 61.7706C18.5657 61.7706 6.04232 49.2472 6.04232 33.8539C6.04232 18.4607 18.5657 5.93728 33.959 5.93728C49.3522 5.93728 61.8757 18.4607 61.8757 33.8539C61.8757 49.2472 49.3522 61.7706 33.959 61.7706ZM28.3757 28.2706C28.3757 29.3259 29.1322 30.2192 30.1735 30.3923L38.6629 31.8077C42.4094 32.4302 45.1257 35.6406 45.1257 39.4373C45.1257 44.0547 41.3681 47.8123 36.7507 47.8123V53.3956H31.1673V47.8123C26.5499 47.8123 22.7923 44.0547 22.7923 39.4373H28.3757C28.3757 40.9783 29.6263 42.2289 31.1673 42.2289H36.7507C38.2917 42.2289 39.5423 40.9783 39.5423 39.4373C39.5423 38.382 38.7858 37.4887 37.7445 37.3156L29.255 35.9002C25.5086 35.2777 22.7923 32.0673 22.7923 28.2706C22.7923 23.6532 26.5499 19.8956 31.1673 19.8956V14.3123H36.7507V19.8956C41.3681 19.8956 45.1257 23.6532 45.1257 28.2706H39.5423C39.5423 26.7324 38.2917 25.4789 36.7507 25.4789H31.1673C29.6263 25.4789 28.3757 26.7324 28.3757 28.2706Z" fill="url(#paint0_linear_578_322)"/>
<defs>
<linearGradient id="paint0_linear_578_322" x1="3.2762" y1="33.854" x2="64.5202" y2="33.854" gradientUnits="userSpaceOnUse">
<stop stop-color="#FF494D"/>
<stop offset="1" stop-color="#FF6F6E"/>
</linearGradient>
</defs>
</svg>
