<svg width="68" height="68" viewBox="0 0 68 68" fill="none" xmlns="http://www.w3.org/2000/svg">
<g clip-path="url(#clip0_559_1722)">
<path d="M60.6974 14.3124C59.8348 14.3124 59.0615 13.835 58.6763 13.0645C57.339 10.3901 54.6507 8.72902 51.6636 8.72902H47.8055V2.5036C47.8055 1.03798 46.3483 -0.0200658 44.972 0.476851C41.742 1.63818 39.4305 4.72856 39.4305 8.36052V12.9165L36.7393 20.8421C36.3401 21.9448 35.2849 22.6846 34.1152 22.6873L19.8833 22.6957C16.8375 22.6957 14.0208 23.6812 11.7232 25.3422C10.0482 24.5689 5.9305 22.1569 5.9305 17.104C5.9305 15.563 4.67983 14.3124 3.13883 14.3124C1.59783 14.3124 0.347168 15.563 0.347168 17.104C0.347168 24.005 4.80267 27.8073 7.85117 29.5995C6.63121 31.6709 5.93329 34.0829 5.93329 36.6568L5.93888 58.9958C5.93888 63.6104 9.69646 67.3652 14.3111 67.3652C18.9257 67.3652 22.6833 63.6104 22.6833 58.993V53.4041L36.6416 53.3957V58.9818C36.6416 63.5964 40.3964 67.354 45.0306 67.354C49.6648 67.354 53.4028 63.5992 53.4028 58.9818V51.2601C53.4028 50.0931 53.5256 48.9234 53.7685 47.7789L56.7333 33.8373C62.6376 33.5525 67.3528 28.6587 67.3528 22.6846V21.2887C67.3528 16.1688 63.3774 14.3096 60.703 14.3096L60.6974 14.3124ZM61.7638 22.6873C61.7638 25.7666 59.2597 28.2707 56.1805 28.2707C53.8718 28.2707 51.8506 29.9094 51.376 32.1623L48.3024 46.6203C47.9786 48.1446 47.8139 49.7051 47.8139 51.2628V58.9846C47.8139 60.5228 46.5632 61.7735 45.0083 61.7735C43.47 61.7735 42.2194 60.5228 42.2194 58.9846V50.6068C42.2194 49.867 41.9263 49.1551 41.4014 48.6303C40.8766 48.1083 40.1675 47.8151 39.4277 47.8151L19.886 47.8263C18.345 47.8263 17.0944 49.077 17.0944 50.618V58.9958C17.0944 60.534 15.8437 61.7846 14.3055 61.7846C12.7673 61.7846 11.5166 60.534 11.5166 58.9958L11.511 36.6568C11.511 32.0394 15.2658 28.2818 19.8805 28.2791L34.1124 28.2707C37.6271 28.2707 40.7928 26.0457 41.9849 22.7376L45.025 14.3124H51.6552C52.5178 14.3124 53.2911 14.7897 53.6764 15.5602C55.0136 18.2346 57.702 19.8957 60.689 19.8957C61.7555 19.8957 61.7555 20.9091 61.7555 21.2915V22.6873H61.7638Z" fill="url(#paint0_linear_559_1722)"/>
</g>
<defs>
<linearGradient id="paint0_linear_559_1722" x1="3.16462" y1="33.8589" x2="64.4138" y2="33.8589" gradientUnits="userSpaceOnUse">
<stop stop-color="#FF494D"/>
<stop offset="1" stop-color="#FF6F6E"/>
</linearGradient>
<clipPath id="clip0_559_1722">
<rect width="67" height="67" fill="white" transform="translate(0.347168 0.354004)"/>
</clipPath>
</defs>
</svg>
