<svg width="68" height="67" viewBox="0 0 68 67" fill="none" xmlns="http://www.w3.org/2000/svg">
<path d="M59.3759 4.78492C57.5027 3.18808 55.0209 2.50412 52.5671 2.90333C51.5872 3.06246 50.6687 3.40863 49.8368 3.89717C48.3489 1.56054 45.7526 0 42.7851 0C40.6327 0 38.6869 0.840292 37.2017 2.1775C35.7166 0.8375 33.7708 0 31.6184 0C28.6453 0 26.0434 1.56892 24.5583 3.91113C23.3383 3.21879 21.9509 2.79167 20.4517 2.79167C15.8343 2.79167 12.0767 6.54925 12.0767 11.1667V18.8075L8.02323 22.7744C5.16456 25.6247 3.58727 29.4186 3.58448 33.4553C3.58168 37.4949 5.15339 41.2887 8.08744 44.2228L19.5528 54.8255C20.1251 55.3532 20.4517 56.1013 20.4517 56.8774V64.2055C20.4517 65.7493 21.7024 66.9972 23.2434 66.9972C24.7844 66.9972 26.0351 65.7493 26.0351 64.2055V56.8774C26.0351 54.552 25.0552 52.3102 23.3467 50.7274L11.9567 40.2C10.1561 38.3994 9.16502 36.0069 9.16781 33.4609C9.16781 30.9177 10.1616 28.5253 11.9483 26.747L18.2351 20.5913C19.3239 19.5054 21.091 19.5054 22.1798 20.5913C22.7074 21.119 22.9977 21.8197 22.9977 22.5678C22.9977 23.316 22.7074 24.0167 22.1937 24.5248L15.5859 31.0043C14.4831 32.0846 14.4692 33.8518 15.5468 34.9517C16.6244 36.0516 18.3915 36.0683 19.4942 34.9908L26.1188 28.4945C27.7045 26.9145 28.5783 24.8095 28.5783 22.5706C28.5783 22.2803 28.5252 21.9983 28.4945 21.7136C29.4604 22.1044 30.5101 22.3305 31.6156 22.3305C33.768 22.3305 35.7138 21.4902 37.1989 20.153C38.6841 21.493 40.6299 22.3305 42.7823 22.3305C44.9346 22.3305 46.8804 21.4902 48.3656 20.153C49.8508 21.493 51.7966 22.3305 53.9489 22.3305C54.9288 22.3305 55.8668 22.1603 56.7406 21.8532V36.247C56.7406 39.4463 55.9031 42.598 54.3174 45.3758C52.2516 48.991 51.1573 53.1087 51.1573 57.2738V64.2083C51.1573 65.7521 52.4079 67 53.9489 67C55.4899 67 56.7406 65.7521 56.7406 64.2083V57.2738C56.7406 54.0746 57.5781 50.9228 59.1638 48.1451C61.2296 44.5299 62.3239 40.4122 62.3239 36.247V11.1667C62.3239 8.70721 61.2491 6.38175 59.3731 4.78492H59.3759ZM23.2434 14.7735C21.4511 14.0784 19.4802 14.0477 17.6601 14.6255V11.1639C17.6601 9.62567 18.9135 8.37221 20.4517 8.37221C21.9899 8.37221 23.2434 9.62567 23.2434 11.1639V14.7735ZM34.4101 13.9555C34.4101 15.4938 33.1566 16.7472 31.6184 16.7472C30.0802 16.7472 28.8267 15.4938 28.8267 13.9555V8.37221C28.8267 6.834 30.0802 5.58054 31.6184 5.58054C33.1566 5.58054 34.4101 6.834 34.4101 8.37221V13.9555ZM45.5767 13.9555C45.5767 15.4938 44.3233 16.7472 42.7851 16.7472C41.2469 16.7472 39.9934 15.4938 39.9934 13.9555V8.37221C39.9934 6.834 41.2469 5.58054 42.7851 5.58054C44.3233 5.58054 45.5767 6.834 45.5767 8.37221V13.9555ZM56.7434 13.9555C56.7434 15.4938 55.4899 16.7472 53.9517 16.7472C52.4135 16.7472 51.1601 15.4938 51.1601 13.9555L51.107 11.2448C51.0763 9.66754 52.3465 8.37221 53.9238 8.37221C55.4788 8.37221 56.7406 9.63404 56.7406 11.189L56.7434 13.9555Z" fill="url(#paint0_linear_559_1654)"/>
<defs>
<linearGradient id="paint0_linear_559_1654" x1="6.05435" y1="33.5" x2="59.7475" y2="33.5" gradientUnits="userSpaceOnUse">
<stop stop-color="#FF494D"/>
<stop offset="1" stop-color="#FF6F6E"/>
</linearGradient>
</defs>
</svg>
