<svg width="58" height="58" viewBox="0 0 58 58" fill="none" xmlns="http://www.w3.org/2000/svg">
<path d="M57.7988 24.0285C57.7989 23.8531 57.7796 23.6782 57.7412 23.5071L54.6175 9.40729C54.0371 6.73111 52.5543 4.33583 50.4176 2.62309C48.281 0.91035 45.6204 -0.0157058 42.882 0.000201571H15.0476C12.3109 -0.0134953 9.65264 0.91357 7.51796 2.62613C5.38327 4.33868 3.90186 6.73273 3.32182 9.40729L0.188531 23.5071C0.150105 23.6782 0.130764 23.8531 0.130863 24.0285V26.4314C0.128924 28.7707 0.983679 31.0298 2.53369 32.782V45.654C2.53751 48.8392 3.80451 51.8928 6.05677 54.1451C8.30904 56.3974 11.3627 57.6643 14.5479 57.6682H43.3818C46.567 57.6643 49.6207 56.3974 51.8729 54.1451C54.1252 51.8928 55.3922 48.8392 55.396 45.654V32.782C56.946 31.0298 57.8008 28.7707 57.7988 26.4314V24.0285ZM4.93653 24.2904L8.01215 10.4501C8.36067 8.84563 9.24965 7.40951 10.5303 6.38207C11.811 5.35462 13.4058 4.79818 15.0476 4.80587H16.9507V12.0144C16.9507 12.6516 17.2038 13.2628 17.6545 13.7134C18.1051 14.164 18.7162 14.4172 19.3535 14.4172C19.9908 14.4172 20.602 14.164 21.0526 13.7134C21.5032 13.2628 21.7563 12.6516 21.7563 12.0144V4.80587H36.1733V12.0144C36.1733 12.6516 36.4265 13.2628 36.8771 13.7134C37.3277 14.164 37.9389 14.4172 38.5762 14.4172C39.2134 14.4172 39.8246 14.164 40.2752 13.7134C40.7259 13.2628 40.979 12.6516 40.979 12.0144V4.80587H42.882C44.5239 4.79818 46.1186 5.35462 47.3993 6.38207C48.68 7.40951 49.569 8.84563 49.9175 10.4501L52.9932 24.2904V26.4314C52.9932 27.7059 52.4869 28.9282 51.5856 29.8295C50.6844 30.7307 49.462 31.237 48.1875 31.237H45.7847C44.5101 31.237 43.2878 30.7307 42.3866 29.8295C41.4853 28.9282 40.979 27.7059 40.979 26.4314C40.979 25.7941 40.7259 25.1829 40.2752 24.7323C39.8246 24.2817 39.2134 24.0285 38.5762 24.0285C37.9389 24.0285 37.3277 24.2817 36.8771 24.7323C36.4265 25.1829 36.1733 25.7941 36.1733 26.4314C36.1733 27.7059 35.667 28.9282 34.7658 29.8295C33.8646 30.7307 32.6422 31.237 31.3677 31.237H26.562C25.2875 31.237 24.0651 30.7307 23.1639 29.8295C22.2627 28.9282 21.7563 27.7059 21.7563 26.4314C21.7563 25.7941 21.5032 25.1829 21.0526 24.7323C20.602 24.2817 19.9908 24.0285 19.3535 24.0285C18.7162 24.0285 18.1051 24.2817 17.6545 24.7323C17.2038 25.1829 16.9507 25.7941 16.9507 26.4314C16.9507 27.7059 16.4444 28.9282 15.5431 29.8295C14.6419 30.7307 13.4196 31.237 12.145 31.237H9.74219C8.46765 31.237 7.24531 30.7307 6.34407 29.8295C5.44284 28.9282 4.93653 27.7059 4.93653 26.4314V24.2904ZM43.3818 52.8625H14.5479C12.636 52.8625 10.8025 52.103 9.45068 50.7512C8.09882 49.3993 7.33936 47.5658 7.33936 45.654V35.7375C8.12412 35.9407 8.93155 36.0433 9.74219 36.0427H12.145C13.5094 36.0434 14.8582 35.7529 16.1013 35.1906C17.3444 34.6283 18.4532 33.8072 19.3535 32.782C20.2539 33.8072 21.3626 34.6283 22.6057 35.1906C23.8488 35.7529 25.1976 36.0434 26.562 36.0427H31.3677C32.732 36.0434 34.0808 35.7529 35.3239 35.1906C36.5671 34.6283 37.6758 33.8072 38.5762 32.782C39.4765 33.8072 40.5853 34.6283 41.8284 35.1906C43.0715 35.7529 44.4203 36.0434 45.7847 36.0427H48.1875C48.9981 36.0433 49.8056 35.9407 50.5903 35.7375V45.654C50.5903 47.5658 49.8309 49.3993 48.479 50.7512C47.1272 52.103 45.2936 52.8625 43.3818 52.8625Z" fill="url(#paint0_linear_578_324)"/>
<defs>
<linearGradient id="paint0_linear_578_324" x1="2.55568" y1="28.8341" x2="55.2694" y2="28.8341" gradientUnits="userSpaceOnUse">
<stop stop-color="#FF494D"/>
<stop offset="1" stop-color="#FF6F6E"/>
</linearGradient>
</defs>
</svg>
