<svg width="68" height="67" viewBox="0 0 68 67" fill="none" xmlns="http://www.w3.org/2000/svg">
<path d="M63.7011 25.7451C61.3265 13.165 49.0017 4.03247 34.403 4.03247C19.8043 4.03247 7.47946 13.165 5.10487 25.7451C4.49342 28.9718 5.53952 32.2796 7.91656 34.6075L22.7044 48.8182C22.3311 49.7808 22.1273 50.8245 22.1273 51.9172V54.3729C22.1273 59.1122 25.9826 62.9676 30.722 62.9676H38.0889C42.8282 62.9676 46.6836 59.1122 46.6836 54.3729V51.9172C46.6836 50.8245 46.4773 49.7808 46.1065 48.8182L60.909 34.5928C63.2689 32.2796 64.315 28.9718 63.7035 25.7427L63.7011 25.7451ZM57.2354 21.7744C56.29 21.4306 55.2292 21.2219 54.048 21.2219C51.1184 21.2219 48.3902 22.4644 46.3152 23.788C45.3698 17.6514 42.757 12.831 40.3923 9.55518C47.9728 11.1366 54.2125 15.6623 57.2354 21.7744ZM36.0458 43.3225H32.7602L27.3308 29.3844C28.9367 28.0264 31.7583 26.1331 34.4005 26.1331C37.0428 26.1331 39.8692 28.0289 41.4727 29.3819L36.0458 43.3225ZM27.5911 23.233C28.9269 16.8484 32.3648 12.2392 34.403 9.96773C36.4411 12.2416 39.879 16.8509 41.2149 23.233C39.2823 22.1378 36.9175 21.2219 34.403 21.2219C31.8884 21.2219 29.5236 22.1378 27.5911 23.233ZM28.4137 9.55518C26.0489 12.831 23.4361 17.6514 22.4907 23.788C20.4157 22.4644 17.6851 21.2219 14.7579 21.2219C13.5768 21.2219 12.516 21.4306 11.5705 21.7744C14.5934 15.6623 20.8356 11.1366 28.4137 9.55518ZM10.1315 29.1953C10.9198 27.9036 12.4226 26.1307 14.7579 26.1307C17.6089 26.1307 20.6686 28.3334 22.1813 29.6864L27.704 43.8677C26.9993 44.1329 26.3387 44.4865 25.7346 44.9187L11.3373 31.0812C10.7847 30.541 10.382 29.8952 10.1315 29.1953ZM41.7699 54.3704C41.7699 56.4012 40.1172 58.0538 38.0864 58.0538H30.7195C28.6887 58.0538 27.0361 56.4012 27.0361 54.3704V51.9148C27.0361 49.884 28.6887 48.2313 30.7195 48.2313H38.0864C40.1172 48.2313 41.7699 49.884 41.7699 51.9148V54.3704ZM43.0713 44.9187C42.4673 44.489 41.8067 44.1329 41.1019 43.8677L46.6246 29.6864C48.1398 28.3285 51.197 26.1307 54.048 26.1307C56.3833 26.1307 57.8886 27.9036 58.6769 29.1978C58.4288 29.8927 58.0286 30.5361 57.4859 31.0665L43.0738 44.9187H43.0713Z" fill="url(#paint0_linear_559_1682)"/>
<defs>
<linearGradient id="paint0_linear_559_1682" x1="7.41196" y1="33.5" x2="61.2896" y2="33.5" gradientUnits="userSpaceOnUse">
<stop stop-color="#FF494D"/>
<stop offset="1" stop-color="#FF6F6E"/>
</linearGradient>
</defs>
</svg>
