<svg width="68" height="68" viewBox="0 0 68 68" fill="none" xmlns="http://www.w3.org/2000/svg">
<g clip-path="url(#clip0_559_1718)">
<path d="M20.0566 14.2063C22.3988 14.2063 24.5093 15.1722 26.028 16.7215C22.329 19.234 19.8919 23.4746 19.8919 28.2735C19.8919 29.1891 19.9924 30.0797 20.1627 30.9479C20.1264 30.9479 20.0929 30.959 20.0566 30.959C15.4308 30.959 11.6816 27.2098 11.6816 22.584C11.6816 17.9583 15.4308 14.2063 20.0566 14.2063ZM47.8114 28.2707C47.8114 29.217 47.7137 30.1411 47.5322 31.0344C47.6271 31.0372 47.7164 31.0623 47.8114 31.0623C52.4372 31.0623 56.1864 27.3131 56.1864 22.6873C56.1864 18.0615 52.4372 14.3123 47.8114 14.3123C45.4636 14.3123 43.3475 15.2866 41.826 16.8416C45.4357 19.368 47.8114 23.5388 47.8114 28.2707ZM33.853 36.6457C38.4788 36.6457 42.228 32.8965 42.228 28.2707C42.228 23.6449 38.4788 19.8957 33.853 19.8957C29.2272 19.8957 25.478 23.6449 25.478 28.2707C25.478 32.8965 29.2272 36.6457 33.853 36.6457ZM5.93636 58.979V47.8123H0.353027V58.979C0.353027 63.5964 4.11061 67.354 8.72803 67.354H19.8947V61.7707H8.72803C7.18982 61.7707 5.93636 60.52 5.93636 58.979ZM61.7697 58.979C61.7697 60.52 60.5162 61.7707 58.978 61.7707H47.8114V67.354H58.978C63.5954 67.354 67.353 63.5964 67.353 58.979V47.8123H61.7697V58.979ZM58.978 0.354004H47.8114V5.93734H58.978C60.5162 5.93734 61.7697 7.188 61.7697 8.729V19.8957H67.353V8.729C67.353 4.11159 63.5954 0.354004 58.978 0.354004ZM5.93636 8.729C5.93636 7.188 7.18982 5.93734 8.72803 5.93734H19.8947V0.354004H8.72803C4.11061 0.354004 0.353027 4.11159 0.353027 8.729V19.8957H5.93636V8.729ZM38.0405 42.229H29.6655C25.8186 42.229 22.6864 45.3585 22.6864 49.2082V53.3957H28.2697V49.2082C28.2697 48.4405 28.895 47.8123 29.6655 47.8123H38.0405C38.811 47.8123 39.4364 48.4405 39.4364 49.2082V53.3957H45.0197V49.2082C45.0197 45.3585 41.8874 42.229 38.0405 42.229ZM24.0822 36.6457H15.7072C11.8603 36.6457 8.72803 39.7751 8.72803 43.6248V47.8123H14.3114V43.6248C14.3114 42.8571 14.9367 42.229 15.7072 42.229H19.2303C20.9137 39.7193 23.4959 37.888 26.4942 37.1007C25.7404 36.8215 24.9337 36.6457 24.0822 36.6457ZM51.9989 42.229C52.7694 42.229 53.3947 42.8571 53.3947 43.6248V47.8123H58.978V43.6248C58.978 39.7751 55.8458 36.6457 51.9989 36.6457H43.6239C42.7724 36.6457 41.9656 36.8215 41.2119 37.1007C44.2129 37.888 46.7924 39.7193 48.4758 42.229H51.9989Z" fill="url(#paint0_linear_559_1718)"/>
</g>
<defs>
<linearGradient id="paint0_linear_559_1718" x1="3.17024" y1="33.854" x2="64.4143" y2="33.854" gradientUnits="userSpaceOnUse">
<stop stop-color="#FF494D"/>
<stop offset="1" stop-color="#FF6F6E"/>
</linearGradient>
<clipPath id="clip0_559_1718">
<rect width="67" height="67" fill="white" transform="translate(0.353027 0.354004)"/>
</clipPath>
</defs>
</svg>
