<svg width="68" height="68" viewBox="0 0 68 68" fill="none" xmlns="http://www.w3.org/2000/svg">
<g clip-path="url(#clip0_576_2711)">
<path d="M33.959 19.8956C26.2624 19.8956 20.0007 26.1573 20.0007 33.8539C20.0007 41.5506 26.2624 47.8123 33.959 47.8123C41.6556 47.8123 47.9173 41.5506 47.9173 33.8539C47.9173 26.1573 41.6556 19.8956 33.959 19.8956ZM33.959 42.2289C29.3416 42.2289 25.584 38.4714 25.584 33.8539C25.584 29.2365 29.3416 25.4789 33.959 25.4789C38.5764 25.4789 42.334 29.2365 42.334 33.8539C42.334 38.4714 38.5764 42.2289 33.959 42.2289ZM64.6673 31.0623H61.7361C60.4212 17.894 49.9189 7.38894 36.7507 6.07686V3.14561C36.7507 1.60182 35.5 0.353943 33.959 0.353943C32.418 0.353943 31.1673 1.60182 31.1673 3.14561V6.07686C17.999 7.38894 7.49398 17.894 6.1819 31.0623H3.25065C1.70965 31.0623 0.458984 32.3102 0.458984 33.8539C0.458984 35.3977 1.70965 36.6456 3.25065 36.6456H6.1819C7.49678 49.8139 17.999 60.3189 31.1673 61.631V64.5623C31.1673 66.1061 32.418 67.3539 33.959 67.3539C35.5 67.3539 36.7507 66.1061 36.7507 64.5623V61.631C49.9189 60.3162 60.424 49.8139 61.7361 36.6456H64.6673C66.2083 36.6456 67.459 35.3977 67.459 33.8539C67.459 32.3102 66.2083 31.0623 64.6673 31.0623ZM33.959 56.1873C21.6449 56.1873 11.6257 46.168 11.6257 33.8539C11.6257 21.5399 21.6449 11.5206 33.959 11.5206C46.273 11.5206 56.2923 21.5399 56.2923 33.8539C56.2923 46.168 46.273 56.1873 33.959 56.1873Z" fill="url(#paint0_linear_576_2711)"/>
</g>
<defs>
<linearGradient id="paint0_linear_576_2711" x1="3.2762" y1="33.854" x2="64.5202" y2="33.854" gradientUnits="userSpaceOnUse">
<stop stop-color="#FF494D"/>
<stop offset="1" stop-color="#FF6F6E"/>
</linearGradient>
<clipPath id="clip0_576_2711">
<rect width="67" height="67" fill="white" transform="translate(0.458984 0.353943)"/>
</clipPath>
</defs>
</svg>
