<svg width="18" height="15" viewBox="0 0 18 15" fill="none" xmlns="http://www.w3.org/2000/svg">
<path d="M15.2577 1.90098C14.0793 1.36714 12.8354 0.98841 11.5576 0.774475C11.3827 1.08379 11.2245 1.40204 11.0836 1.72789C9.7225 1.52492 8.33836 1.52492 6.97726 1.72789C6.83628 1.40208 6.67807 1.08383 6.50329 0.774475C5.22467 0.990217 3.9799 1.36984 2.80038 1.90377C0.458738 5.33215 -0.176046 8.67537 0.141346 11.9711C1.51267 12.9738 3.04758 13.7363 4.67934 14.2255C5.04677 13.7365 5.37189 13.2177 5.65127 12.6747C5.12064 12.4786 4.60848 12.2366 4.12073 11.9516C4.2491 11.8595 4.37465 11.7645 4.49596 11.6724C5.91519 12.3329 7.46421 12.6753 9.03255 12.6753C10.6009 12.6753 12.1499 12.3329 13.5691 11.6724C13.6919 11.7715 13.8174 11.8664 13.9444 11.9516C13.4557 12.2371 12.9426 12.4795 12.411 12.6761C12.69 13.2189 13.0152 13.7372 13.3829 14.2255C15.0161 13.7382 16.5522 12.9761 17.9237 11.9725C18.2962 8.1505 17.2876 4.83799 15.2577 1.90098ZM6.0533 9.94426C5.16883 9.94426 4.43812 9.14998 4.43812 8.17284C4.43812 7.1957 5.14344 6.39444 6.05047 6.39444C6.95751 6.39444 7.68257 7.1957 7.66706 8.17284C7.65154 9.14998 6.95469 9.94426 6.0533 9.94426ZM12.0118 9.94426C11.1259 9.94426 10.398 9.14998 10.398 8.17284C10.398 7.1957 11.1034 6.39444 12.0118 6.39444C12.9202 6.39444 13.6397 7.1957 13.6241 8.17284C13.6086 9.14998 12.9132 9.94426 12.0118 9.94426Z" fill="white"/>
</svg>
